{
 "cells": [
  {
   "cell_type": "code",
   "execution_count": 13,
   "metadata": {},
   "outputs": [],
   "source": [
    "import pandas as pd\n",
    "import numpy as np\n",
    "import os\n",
    "import music21"
   ]
  },
  {
   "cell_type": "code",
   "execution_count": 9,
   "metadata": {},
   "outputs": [],
   "source": [
    "train_midi_path = \"./Challenge_DataSet/PS1/\"\n",
    "test_midi_path = \"./Challenge_DataSet/PS2/\""
   ]
  },
  {
   "cell_type": "code",
   "execution_count": 12,
   "metadata": {},
   "outputs": [
    {
     "name": "stdout",
     "output_type": "stream",
     "text": [
      "['.DS_Store', 'Beethoven', 'Schubert', 'Bach', 'Brahms']\n",
      "['0.8014751784512073_adj.mid', '0.981087291054314_adj.mid', '0.5807329043589801_adj.mid', '0.23120017256495873_adj.mid', '0.033313986422223163_adj.mid', '0.3559970176888735_adj.mid', '0.3264565808984162_adj.mid', '0.905499891236923_adj.mid', '0.10250888365879718_adj.mid', '0.48367685897240176_adj.mid', '0.549470161204349_adj.mid', '0.33695573887576447_adj.mid', '0.7491289879531658_adj.mid', '0.337517805339117_adj.mid', '0.07186746659481313_adj.mid', '0.09167358800381353_adj.mid', '0.539512676743813_adj.mid', '0.26551079719260606_adj.mid', '0.647959423719129_adj.mid', '0.047574444458241216_adj.mid', '0.10222964826466285_adj.mid', '0.22047111832936942_adj.mid', '0.1755252422917658_adj.mid', '0.36321860283443286_adj.mid', '0.21198476749665085_adj.mid', '0.06402123326764841_adj.mid', '0.3620067189216978_adj.mid', '0.9511403301279795_adj.mid', '0.1960551158929671_adj.mid', '0.21901852969811753_adj.mid', '0.10630249969742178_adj.mid', '0.9353908329958764_adj.mid', '0.3334293069825759_adj.mid', '0.30993012400290976_adj.mid', '0.002716920481628_adj.mid']\n"
     ]
    }
   ],
   "source": [
    "print(os.listdir(train_midi_path))\n",
    "print(os.listdir(test_midi_path))"
   ]
  },
  {
   "cell_type": "code",
   "execution_count": 17,
   "metadata": {},
   "outputs": [
    {
     "data": {
      "text/plain": [
       "'./Challenge_DataSet/PS1/Bach/Cello Suite 3_BWV1009_2217_cs3-1pre.mid'"
      ]
     },
     "execution_count": 17,
     "metadata": {},
     "output_type": "execute_result"
    }
   ],
   "source": [
    "train_midi_path+\"Bach/Cello Suite 3_BWV1009_2217_cs3-1pre.mid\""
   ]
  },
  {
   "cell_type": "code",
   "execution_count": 14,
   "metadata": {},
   "outputs": [],
   "source": [
    "def open_midi(midi_path):\n",
    "    # There is an one-line method to read MIDIs\n",
    "    # but to remove the drums we need to manipulate some\n",
    "    # low level MIDI events.\n",
    "    mf = music21.midi.MidiFile()\n",
    "    mf.open(midi_path)\n",
    "    mf.read()\n",
    "    mf.close()\n",
    "    # if (remove_drums):\n",
    "    #     for i in range(len(mf.tracks)):\n",
    "    #         mf.tracks[i].events = [ev for ev in mf.tracks[i].events if ev.channel != 10]          \n",
    "\n",
    "    return music21.midi.translate.midiFileToStream(mf)"
   ]
  },
  {
   "cell_type": "code",
   "execution_count": 18,
   "metadata": {},
   "outputs": [
    {
     "data": {
      "text/plain": [
       "<music21.stream.Score 0x1242484a0>"
      ]
     },
     "execution_count": 18,
     "metadata": {},
     "output_type": "execute_result"
    }
   ],
   "source": [
    "base_midi = open_midi(train_midi_path+\"Bach/Cello Suite 3_BWV1009_2217_cs3-1pre.mid\")\n",
    "base_midi"
   ]
  },
  {
   "cell_type": "code",
   "execution_count": 20,
   "metadata": {},
   "outputs": [
    {
     "name": "stdout",
     "output_type": "stream",
     "text": [
      "List of instruments found on MIDI file:\n",
      "Solo Cello\n",
      "--------------------------------------\n",
      "Johann Sebastian Bach  (1685-1750)\n",
      "Six Suites for Solo Cello\n"
     ]
    }
   ],
   "source": [
    "def list_instruments(midi):\n",
    "    partStream = midi.parts.stream()\n",
    "    print(\"List of instruments found on MIDI file:\")\n",
    "    for p in partStream:\n",
    "        aux = p\n",
    "        print (p.partName)\n",
    "\n",
    "list_instruments(base_midi)"
   ]
  },
  {
   "cell_type": "code",
   "execution_count": 23,
   "metadata": {},
   "outputs": [
    {
     "data": {
      "text/plain": [
       "<music21.key.Key of C major>"
      ]
     },
     "execution_count": 23,
     "metadata": {},
     "output_type": "execute_result"
    }
   ],
   "source": [
    "base_midi.analyze('key')"
   ]
  },
  {
   "cell_type": "code",
   "execution_count": null,
   "metadata": {},
   "outputs": [],
   "source": [
    "def load_midi_file(file_path):\n",
    "    \"\"\"\n",
    "    Load a MIDI file and return the MIDI object.\n",
    "    \n",
    "    Parameters:\n",
    "    file_path (str): Path to the MIDI file.\n",
    "    \n",
    "    Returns:\n",
    "    mido.MidiFile: Loaded MIDI file object.\n",
    "    \"\"\"\n",
    "    return mido.MidiFile(file_path)\n",
    "\n",
    "def print_midi_info(midi_file):\n",
    "    \"\"\"\n",
    "    Print basic information about the MIDI file.\n",
    "    \n",
    "    Parameters:\n",
    "    midi_file (mido.MidiFile): MIDI file object.\n",
    "    \"\"\"\n",
    "    print(f\"Type: {midi_file.type}\")\n",
    "    print(f\"Number of tracks: {midi_file.tracks}\")\n",
    "    print(f\"Length: {midi_file.length} seconds\")\n",
    "    \n",
    "    for i, track in enumerate(midi_file.tracks):\n",
    "        print(f\"Track {i}: {track.name}\")\n",
    "        for msg in track:\n",
    "            print(msg)"
   ]
  },
  {
   "cell_type": "code",
   "execution_count": null,
   "metadata": {},
   "outputs": [],
   "source": [
    "def main():\n",
    "    # Path to your MIDI file\n",
    "    midi_file_path = '/Users/bartmasters/code/sfl_takehome/Challenge_DataSet/PS1/Bach/Cello Suite 3_BWV1009_2217_cs3-1pre.mid'\n",
    "    \n",
    "    # Load the MIDI file\n",
    "    midi_file = load_midi_file(midi_file_path)\n",
    "    \n",
    "    # Print MIDI file information\n",
    "    print_midi_info(midi_file)\n",
    "\n",
    "if __name__ == \"__main__\":\n",
    "    main()"
   ]
  },
  {
   "cell_type": "code",
   "execution_count": null,
   "metadata": {},
   "outputs": [],
   "source": [
    "midi_file_path = '/Users/bartmasters/code/sfl_takehome/Challenge_DataSet/PS1/Bach/Cello Suite 3_BWV1009_2217_cs3-1pre.mid'\n",
    "\n",
    "# Load the MIDI file\n",
    "midi_file = load_midi_file(midi_file_path)\n",
    "\n",
    "# Print MIDI file information\n",
    "print_midi_info(midi_file)"
   ]
  },
  {
   "cell_type": "code",
   "execution_count": 6,
   "metadata": {},
   "outputs": [
    {
     "data": {
      "text/plain": [
       "MidiFile(type=1, ticks_per_beat=480, tracks=[\n",
       "  MidiTrack([\n",
       "    MetaMessage('track_name', name='untitled', time=0),\n",
       "    MetaMessage('copyright', text='Copyright © 1996 by David J. Grossman', time=0),\n",
       "    MetaMessage('text', text='David J. Grossman', time=0),\n",
       "    MetaMessage('smpte_offset', frame_rate=30, hours=0, minutes=0, seconds=3, frames=0, sub_frames=0, time=0),\n",
       "    MetaMessage('time_signature', numerator=3, denominator=4, clocks_per_click=24, notated_32nd_notes_per_beat=8, time=0),\n",
       "    MetaMessage('key_signature', key='C', time=0),\n",
       "    MetaMessage('set_tempo', tempo=857143, time=0),\n",
       "    MetaMessage('marker', text='*', time=112320),\n",
       "    MetaMessage('set_tempo', tempo=1714286, time=12960),\n",
       "    MetaMessage('end_of_track', time=0)]),\n",
       "  MidiTrack([\n",
       "    MetaMessage('midi_port', port=0, time=0),\n",
       "    MetaMessage('track_name', name='Solo Cello', time=0),\n",
       "    Message('program_change', channel=0, program=42, time=0),\n",
       "    Message('control_change', channel=0, control=7, value=100, time=0),\n",
       "    Message('control_change', channel=0, control=10, value=64, time=0),\n",
       "    Message('note_on', channel=0, note=60, velocity=100, time=0),\n",
       "    Message('note_on', channel=0, note=60, velocity=0, time=240),\n",
       "    Message('note_on', channel=0, note=59, velocity=100, time=0),\n",
       "    Message('note_on', channel=0, note=59, velocity=0, time=120),\n",
       "    Message('note_on', channel=0, note=57, velocity=100, time=0),\n",
       "    Message('note_on', channel=0, note=57, velocity=0, time=120),\n",
       "    Message('note_on', channel=0, note=55, velocity=100, time=0),\n",
       "    Message('note_on', channel=0, note=55, velocity=0, time=120),\n",
       "    Message('note_on', channel=0, note=53, velocity=100, time=0),\n",
       "    Message('note_on', channel=0, note=53, velocity=0, time=120),\n",
       "    Message('note_on', channel=0, note=52, velocity=100, time=0),\n",
       "    Message('note_on', channel=0, note=52, velocity=0, time=120),\n",
       "    Message('note_on', channel=0, note=50, velocity=100, time=0),\n",
       "    Message('note_on', channel=0, note=50, velocity=0, time=120),\n",
       "    Message('note_on', channel=0, note=48, velocity=100, time=0),\n",
       "    Message('note_on', channel=0, note=48, velocity=0, time=120),\n",
       "    Message('note_on', channel=0, note=43, velocity=100, time=0),\n",
       "    Message('note_on', channel=0, note=43, velocity=0, time=120),\n",
       "    Message('note_on', channel=0, note=40, velocity=100, time=0),\n",
       "    Message('note_on', channel=0, note=40, velocity=0, time=120),\n",
       "    Message('note_on', channel=0, note=43, velocity=100, time=0),\n",
       "    Message('note_on', channel=0, note=43, velocity=0, time=120),\n",
       "    Message('note_on', channel=0, note=36, velocity=100, time=0),\n",
       "    Message('note_on', channel=0, note=36, velocity=0, time=600),\n",
       "    Message('note_on', channel=0, note=38, velocity=100, time=0),\n",
       "    Message('note_on', channel=0, note=38, velocity=0, time=120),\n",
       "    Message('note_on', channel=0, note=40, velocity=100, time=0),\n",
       "    Message('note_on', channel=0, note=40, velocity=0, time=120),\n",
       "    Message('note_on', channel=0, note=41, velocity=100, time=0),\n",
       "    Message('note_on', channel=0, note=41, velocity=0, time=120),\n",
       "    Message('note_on', channel=0, note=43, velocity=100, time=0),\n",
       "    Message('note_on', channel=0, note=43, velocity=0, time=120),\n",
       "    Message('note_on', channel=0, note=45, velocity=100, time=0),\n",
       "    Message('note_on', channel=0, note=45, velocity=0, time=120),\n",
       "    Message('note_on', channel=0, note=47, velocity=100, time=0),\n",
       "    Message('note_on', channel=0, note=47, velocity=0, time=120),\n",
       "    Message('note_on', channel=0, note=48, velocity=100, time=0),\n",
       "    Message('note_on', channel=0, note=48, velocity=0, time=120),\n",
       "    Message('note_on', channel=0, note=50, velocity=100, time=0),\n",
       "    Message('note_on', channel=0, note=50, velocity=0, time=120),\n",
       "    Message('note_on', channel=0, note=48, velocity=100, time=0),\n",
       "    Message('note_on', channel=0, note=48, velocity=0, time=120),\n",
       "    Message('note_on', channel=0, note=47, velocity=100, time=0),\n",
       "    Message('note_on', channel=0, note=47, velocity=0, time=120),\n",
       "    Message('note_on', channel=0, note=45, velocity=100, time=0),\n",
       "    Message('note_on', channel=0, note=45, velocity=0, time=120),\n",
       "    Message('note_on', channel=0, note=43, velocity=100, time=0),\n",
       "    Message('note_on', channel=0, note=43, velocity=0, time=120),\n",
       "    Message('note_on', channel=0, note=45, velocity=100, time=0),\n",
       "    Message('note_on', channel=0, note=45, velocity=0, time=120),\n",
       "    Message('note_on', channel=0, note=47, velocity=100, time=0),\n",
       "    Message('note_on', channel=0, note=47, velocity=0, time=120),\n",
       "    Message('note_on', channel=0, note=48, velocity=100, time=0),\n",
       "    Message('note_on', channel=0, note=48, velocity=0, time=120),\n",
       "    Message('note_on', channel=0, note=50, velocity=100, time=0),\n",
       "    Message('note_on', channel=0, note=50, velocity=0, time=120),\n",
       "    Message('note_on', channel=0, note=52, velocity=100, time=0),\n",
       "    Message('note_on', channel=0, note=52, velocity=0, time=120),\n",
       "    Message('note_on', channel=0, note=53, velocity=100, time=0),\n",
       "    Message('note_on', channel=0, note=53, velocity=0, time=120),\n",
       "    Message('note_on', channel=0, note=50, velocity=100, time=0),\n",
       "    Message('note_on', channel=0, note=50, velocity=0, time=120),\n",
       "    Message('note_on', channel=0, note=52, velocity=100, time=0),\n",
       "    Message('note_on', channel=0, note=52, velocity=0, time=120),\n",
       "    Message('note_on', channel=0, note=53, velocity=100, time=0),\n",
       "    Message('note_on', channel=0, note=53, velocity=0, time=120),\n",
       "    Message('note_on', channel=0, note=52, velocity=100, time=0),\n",
       "    Message('note_on', channel=0, note=52, velocity=0, time=120),\n",
       "    Message('note_on', channel=0, note=50, velocity=100, time=0),\n",
       "    Message('note_on', channel=0, note=50, velocity=0, time=120),\n",
       "    Message('note_on', channel=0, note=48, velocity=100, time=0),\n",
       "    Message('note_on', channel=0, note=48, velocity=0, time=120),\n",
       "    Message('note_on', channel=0, note=50, velocity=100, time=0),\n",
       "    Message('note_on', channel=0, note=50, velocity=0, time=120),\n",
       "    Message('note_on', channel=0, note=52, velocity=100, time=0),\n",
       "    Message('note_on', channel=0, note=52, velocity=0, time=120),\n",
       "    Message('note_on', channel=0, note=53, velocity=100, time=0),\n",
       "    Message('note_on', channel=0, note=53, velocity=0, time=120),\n",
       "    Message('note_on', channel=0, note=55, velocity=100, time=0),\n",
       "    Message('note_on', channel=0, note=55, velocity=0, time=120),\n",
       "    Message('note_on', channel=0, note=57, velocity=100, time=0),\n",
       "    Message('note_on', channel=0, note=57, velocity=0, time=120),\n",
       "    Message('note_on', channel=0, note=59, velocity=100, time=0),\n",
       "    Message('note_on', channel=0, note=59, velocity=0, time=120),\n",
       "    Message('note_on', channel=0, note=60, velocity=100, time=0),\n",
       "    Message('note_on', channel=0, note=60, velocity=0, time=120),\n",
       "    Message('note_on', channel=0, note=62, velocity=100, time=0),\n",
       "    Message('note_on', channel=0, note=62, velocity=0, time=120),\n",
       "    Message('note_on', channel=0, note=60, velocity=100, time=0),\n",
       "    Message('note_on', channel=0, note=60, velocity=0, time=120),\n",
       "    Message('note_on', channel=0, note=59, velocity=100, time=0),\n",
       "    Message('note_on', channel=0, note=59, velocity=0, time=120),\n",
       "    Message('note_on', channel=0, note=57, velocity=100, time=0),\n",
       "    Message('note_on', channel=0, note=57, velocity=0, time=120),\n",
       "    Message('note_on', channel=0, note=55, velocity=100, time=0),\n",
       "    Message('note_on', channel=0, note=55, velocity=0, time=120),\n",
       "    Message('note_on', channel=0, note=57, velocity=100, time=0),\n",
       "    Message('note_on', channel=0, note=57, velocity=0, time=120),\n",
       "    Message('note_on', channel=0, note=59, velocity=100, time=0),\n",
       "    Message('note_on', channel=0, note=59, velocity=0, time=120),\n",
       "    Message('note_on', channel=0, note=60, velocity=100, time=0),\n",
       "    Message('note_on', channel=0, note=60, velocity=0, time=120),\n",
       "    Message('note_on', channel=0, note=62, velocity=100, time=0),\n",
       "    Message('note_on', channel=0, note=62, velocity=0, time=120),\n",
       "    Message('note_on', channel=0, note=64, velocity=100, time=0),\n",
       "    Message('note_on', channel=0, note=64, velocity=0, time=120),\n",
       "    Message('note_on', channel=0, note=65, velocity=100, time=0),\n",
       "    Message('note_on', channel=0, note=65, velocity=0, time=120),\n",
       "    Message('note_on', channel=0, note=62, velocity=100, time=0),\n",
       "    Message('note_on', channel=0, note=62, velocity=0, time=120),\n",
       "    Message('note_on', channel=0, note=64, velocity=100, time=0),\n",
       "    Message('note_on', channel=0, note=64, velocity=0, time=120),\n",
       "    Message('note_on', channel=0, note=65, velocity=100, time=0),\n",
       "    Message('note_on', channel=0, note=65, velocity=0, time=120),\n",
       "    Message('note_on', channel=0, note=64, velocity=100, time=0),\n",
       "    Message('note_on', channel=0, note=64, velocity=0, time=120),\n",
       "    Message('note_on', channel=0, note=62, velocity=100, time=0),\n",
       "    Message('note_on', channel=0, note=62, velocity=0, time=120),\n",
       "    Message('note_on', channel=0, note=60, velocity=100, time=0),\n",
       "    Message('note_on', channel=0, note=60, velocity=0, time=120),\n",
       "    Message('note_on', channel=0, note=60, velocity=100, time=0),\n",
       "    Message('note_on', channel=0, note=60, velocity=0, time=120),\n",
       "    Message('note_on', channel=0, note=59, velocity=100, time=0),\n",
       "    Message('note_on', channel=0, note=59, velocity=0, time=120),\n",
       "    Message('note_on', channel=0, note=57, velocity=100, time=0),\n",
       "    Message('note_on', channel=0, note=57, velocity=0, time=120),\n",
       "    Message('note_on', channel=0, note=55, velocity=100, time=0),\n",
       "    Message('note_on', channel=0, note=55, velocity=0, time=120),\n",
       "    Message('note_on', channel=0, note=53, velocity=100, time=0),\n",
       "    Message('note_on', channel=0, note=53, velocity=0, time=120),\n",
       "    Message('note_on', channel=0, note=52, velocity=100, time=0),\n",
       "    Message('note_on', channel=0, note=52, velocity=0, time=120),\n",
       "    Message('note_on', channel=0, note=50, velocity=100, time=0),\n",
       "    Message('note_on', channel=0, note=50, velocity=0, time=120),\n",
       "    Message('note_on', channel=0, note=48, velocity=100, time=0),\n",
       "    Message('note_on', channel=0, note=48, velocity=0, time=120),\n",
       "    Message('note_on', channel=0, note=59, velocity=100, time=0),\n",
       "    Message('note_on', channel=0, note=59, velocity=0, time=120),\n",
       "    Message('note_on', channel=0, note=60, velocity=100, time=0),\n",
       "    Message('note_on', channel=0, note=60, velocity=0, time=120),\n",
       "    Message('note_on', channel=0, note=62, velocity=100, time=0),\n",
       "    Message('note_on', channel=0, note=62, velocity=0, time=120),\n",
       "    Message('note_on', channel=0, note=64, velocity=100, time=0),\n",
       "    Message('note_on', channel=0, note=64, velocity=0, time=120),\n",
       "    Message('note_on', channel=0, note=62, velocity=100, time=0),\n",
       "    Message('note_on', channel=0, note=62, velocity=0, time=120),\n",
       "    Message('note_on', channel=0, note=60, velocity=100, time=0),\n",
       "    Message('note_on', channel=0, note=60, velocity=0, time=120),\n",
       "    Message('note_on', channel=0, note=59, velocity=100, time=0),\n",
       "    Message('note_on', channel=0, note=59, velocity=0, time=120),\n",
       "    Message('note_on', channel=0, note=57, velocity=100, time=0),\n",
       "    Message('note_on', channel=0, note=57, velocity=0, time=120),\n",
       "    Message('note_on', channel=0, note=60, velocity=100, time=0),\n",
       "    Message('note_on', channel=0, note=60, velocity=0, time=120),\n",
       "    Message('note_on', channel=0, note=55, velocity=100, time=0),\n",
       "    Message('note_on', channel=0, note=55, velocity=0, time=120),\n",
       "    Message('note_on', channel=0, note=60, velocity=100, time=0),\n",
       "    Message('note_on', channel=0, note=60, velocity=0, time=120),\n",
       "    Message('note_on', channel=0, note=54, velocity=100, time=0),\n",
       "    Message('note_on', channel=0, note=54, velocity=0, time=120),\n",
       "    Message('note_on', channel=0, note=52, velocity=100, time=0),\n",
       "    Message('note_on', channel=0, note=52, velocity=0, time=120),\n",
       "    Message('note_on', channel=0, note=54, velocity=100, time=0),\n",
       "    Message('note_on', channel=0, note=54, velocity=0, time=120),\n",
       "    Message('note_on', channel=0, note=55, velocity=100, time=0),\n",
       "    Message('note_on', channel=0, note=55, velocity=0, time=120),\n",
       "    Message('note_on', channel=0, note=57, velocity=100, time=0),\n",
       "    Message('note_on', channel=0, note=57, velocity=0, time=120),\n",
       "    Message('note_on', channel=0, note=55, velocity=100, time=0),\n",
       "    Message('note_on', channel=0, note=55, velocity=0, time=120),\n",
       "    Message('note_on', channel=0, note=54, velocity=100, time=0),\n",
       "    Message('note_on', channel=0, note=54, velocity=0, time=120),\n",
       "    Message('note_on', channel=0, note=52, velocity=100, time=0),\n",
       "    Message('note_on', channel=0, note=52, velocity=0, time=120),\n",
       "    Message('note_on', channel=0, note=50, velocity=100, time=0),\n",
       "    Message('note_on', channel=0, note=50, velocity=0, time=120),\n",
       "    Message('note_on', channel=0, note=54, velocity=100, time=0),\n",
       "    Message('note_on', channel=0, note=54, velocity=0, time=120),\n",
       "    Message('note_on', channel=0, note=48, velocity=100, time=0),\n",
       "    Message('note_on', channel=0, note=48, velocity=0, time=120),\n",
       "    Message('note_on', channel=0, note=54, velocity=100, time=0),\n",
       "    Message('note_on', channel=0, note=54, velocity=0, time=120),\n",
       "    Message('note_on', channel=0, note=47, velocity=100, time=0),\n",
       "    Message('note_on', channel=0, note=47, velocity=0, time=120),\n",
       "    Message('note_on', channel=0, note=57, velocity=100, time=0),\n",
       "    Message('note_on', channel=0, note=57, velocity=0, time=120),\n",
       "    Message('note_on', channel=0, note=59, velocity=100, time=0),\n",
       "    Message('note_on', channel=0, note=59, velocity=0, time=120),\n",
       "    Message('note_on', channel=0, note=60, velocity=100, time=0),\n",
       "    Message('note_on', channel=0, note=60, velocity=0, time=120),\n",
       "    Message('note_on', channel=0, note=62, velocity=100, time=0),\n",
       "    Message('note_on', channel=0, note=62, velocity=0, time=120),\n",
       "    Message('note_on', channel=0, note=60, velocity=100, time=0),\n",
       "    Message('note_on', channel=0, note=60, velocity=0, time=120),\n",
       "    Message('note_on', channel=0, note=59, velocity=100, time=0),\n",
       "    Message('note_on', channel=0, note=59, velocity=0, time=120),\n",
       "    Message('note_on', channel=0, note=57, velocity=100, time=0),\n",
       "    Message('note_on', channel=0, note=57, velocity=0, time=120),\n",
       "    Message('note_on', channel=0, note=55, velocity=100, time=0),\n",
       "    Message('note_on', channel=0, note=55, velocity=0, time=120),\n",
       "    Message('note_on', channel=0, note=59, velocity=100, time=0),\n",
       "    Message('note_on', channel=0, note=59, velocity=0, time=120),\n",
       "    Message('note_on', channel=0, note=54, velocity=100, time=0),\n",
       "    Message('note_on', channel=0, note=54, velocity=0, time=120),\n",
       "    Message('note_on', channel=0, note=59, velocity=100, time=0),\n",
       "    Message('note_on', channel=0, note=59, velocity=0, time=120),\n",
       "    Message('note_on', channel=0, note=52, velocity=100, time=0),\n",
       "    Message('note_on', channel=0, note=52, velocity=0, time=120),\n",
       "    Message('note_on', channel=0, note=50, velocity=100, time=0),\n",
       "    Message('note_on', channel=0, note=50, velocity=0, time=120),\n",
       "    Message('note_on', channel=0, note=52, velocity=100, time=0),\n",
       "    Message('note_on', channel=0, note=52, velocity=0, time=120),\n",
       "    Message('note_on', channel=0, note=54, velocity=100, time=0),\n",
       "    Message('note_on', channel=0, note=54, velocity=0, time=120),\n",
       "    Message('note_on', channel=0, note=55, velocity=100, time=0),\n",
       "    Message('note_on', channel=0, note=55, velocity=0, time=120),\n",
       "    Message('note_on', channel=0, note=54, velocity=100, time=0),\n",
       "    Message('note_on', channel=0, note=54, velocity=0, time=120),\n",
       "    Message('note_on', channel=0, note=52, velocity=100, time=0),\n",
       "    Message('note_on', channel=0, note=52, velocity=0, time=120),\n",
       "    Message('note_on', channel=0, note=50, velocity=100, time=0),\n",
       "    Message('note_on', channel=0, note=50, velocity=0, time=120),\n",
       "    Message('note_on', channel=0, note=48, velocity=100, time=0),\n",
       "    Message('note_on', channel=0, note=48, velocity=0, time=120),\n",
       "    Message('note_on', channel=0, note=52, velocity=100, time=0),\n",
       "    Message('note_on', channel=0, note=52, velocity=0, time=120),\n",
       "    Message('note_on', channel=0, note=47, velocity=100, time=0),\n",
       "    Message('note_on', channel=0, note=47, velocity=0, time=120),\n",
       "    Message('note_on', channel=0, note=52, velocity=100, time=0),\n",
       "    Message('note_on', channel=0, note=52, velocity=0, time=120),\n",
       "    Message('note_on', channel=0, note=45, velocity=100, time=0),\n",
       "    Message('note_on', channel=0, note=45, velocity=0, time=120),\n",
       "    Message('note_on', channel=0, note=55, velocity=100, time=0),\n",
       "    Message('note_on', channel=0, note=55, velocity=0, time=120),\n",
       "    Message('note_on', channel=0, note=57, velocity=100, time=0),\n",
       "    Message('note_on', channel=0, note=57, velocity=0, time=120),\n",
       "    Message('note_on', channel=0, note=59, velocity=100, time=0),\n",
       "    Message('note_on', channel=0, note=59, velocity=0, time=120),\n",
       "    Message('note_on', channel=0, note=60, velocity=100, time=0),\n",
       "    Message('note_on', channel=0, note=60, velocity=0, time=120),\n",
       "    Message('note_on', channel=0, note=59, velocity=100, time=0),\n",
       "    Message('note_on', channel=0, note=59, velocity=0, time=120),\n",
       "    Message('note_on', channel=0, note=57, velocity=100, time=0),\n",
       "    Message('note_on', channel=0, note=57, velocity=0, time=120),\n",
       "    Message('note_on', channel=0, note=55, velocity=100, time=0),\n",
       "    Message('note_on', channel=0, note=55, velocity=0, time=120),\n",
       "    Message('note_on', channel=0, note=54, velocity=100, time=0),\n",
       "    Message('note_on', channel=0, note=54, velocity=0, time=120),\n",
       "    Message('note_on', channel=0, note=57, velocity=100, time=0),\n",
       "    Message('note_on', channel=0, note=57, velocity=0, time=120),\n",
       "    Message('note_on', channel=0, note=52, velocity=100, time=0),\n",
       "    Message('note_on', channel=0, note=52, velocity=0, time=120),\n",
       "    Message('note_on', channel=0, note=57, velocity=100, time=0),\n",
       "    Message('note_on', channel=0, note=57, velocity=0, time=120),\n",
       "    Message('note_on', channel=0, note=50, velocity=100, time=0),\n",
       "    Message('note_on', channel=0, note=50, velocity=0, time=120),\n",
       "    Message('note_on', channel=0, note=48, velocity=100, time=0),\n",
       "    Message('note_on', channel=0, note=48, velocity=0, time=120),\n",
       "    Message('note_on', channel=0, note=50, velocity=100, time=0),\n",
       "    Message('note_on', channel=0, note=50, velocity=0, time=120),\n",
       "    Message('note_on', channel=0, note=52, velocity=100, time=0),\n",
       "    Message('note_on', channel=0, note=52, velocity=0, time=120),\n",
       "    Message('note_on', channel=0, note=54, velocity=100, time=0),\n",
       "    Message('note_on', channel=0, note=54, velocity=0, time=120),\n",
       "    Message('note_on', channel=0, note=52, velocity=100, time=0),\n",
       "    Message('note_on', channel=0, note=52, velocity=0, time=120),\n",
       "    Message('note_on', channel=0, note=50, velocity=100, time=0),\n",
       "    Message('note_on', channel=0, note=50, velocity=0, time=120),\n",
       "    Message('note_on', channel=0, note=48, velocity=100, time=0),\n",
       "    Message('note_on', channel=0, note=48, velocity=0, time=120),\n",
       "    Message('note_on', channel=0, note=47, velocity=100, time=0),\n",
       "    Message('note_on', channel=0, note=47, velocity=0, time=120),\n",
       "    Message('note_on', channel=0, note=50, velocity=100, time=0),\n",
       "    Message('note_on', channel=0, note=50, velocity=0, time=120),\n",
       "    Message('note_on', channel=0, note=45, velocity=100, time=0),\n",
       "    Message('note_on', channel=0, note=45, velocity=0, time=120),\n",
       "    Message('note_on', channel=0, note=50, velocity=100, time=0),\n",
       "    Message('note_on', channel=0, note=50, velocity=0, time=120),\n",
       "    Message('note_on', channel=0, note=43, velocity=100, time=0),\n",
       "    Message('note_on', channel=0, note=43, velocity=0, time=120),\n",
       "    Message('note_on', channel=0, note=50, velocity=100, time=0),\n",
       "    Message('note_on', channel=0, note=50, velocity=0, time=120),\n",
       "    Message('note_on', channel=0, note=52, velocity=100, time=0),\n",
       "    Message('note_on', channel=0, note=52, velocity=0, time=120),\n",
       "    Message('note_on', channel=0, note=54, velocity=100, time=0),\n",
       "    Message('note_on', channel=0, note=54, velocity=0, time=120),\n",
       "    Message('note_on', channel=0, note=55, velocity=100, time=0),\n",
       "    Message('note_on', channel=0, note=55, velocity=0, time=120),\n",
       "    Message('note_on', channel=0, note=57, velocity=100, time=0),\n",
       "    Message('note_on', channel=0, note=57, velocity=0, time=120),\n",
       "    Message('note_on', channel=0, note=59, velocity=100, time=0),\n",
       "    Message('note_on', channel=0, note=59, velocity=0, time=120),\n",
       "    Message('note_on', channel=0, note=60, velocity=100, time=0),\n",
       "    Message('note_on', channel=0, note=60, velocity=0, time=120),\n",
       "    Message('note_on', channel=0, note=62, velocity=100, time=0),\n",
       "    Message('note_on', channel=0, note=62, velocity=0, time=120),\n",
       "    Message('note_on', channel=0, note=60, velocity=100, time=0),\n",
       "    Message('note_on', channel=0, note=60, velocity=0, time=120),\n",
       "    Message('note_on', channel=0, note=59, velocity=100, time=0),\n",
       "    Message('note_on', channel=0, note=59, velocity=0, time=120),\n",
       "    Message('note_on', channel=0, note=57, velocity=100, time=0),\n",
       "    Message('note_on', channel=0, note=57, velocity=0, time=120),\n",
       "    Message('note_on', channel=0, note=59, velocity=100, time=0),\n",
       "    Message('note_on', channel=0, note=59, velocity=0, time=120),\n",
       "    Message('note_on', channel=0, note=60, velocity=100, time=0),\n",
       "    Message('note_on', channel=0, note=60, velocity=0, time=120),\n",
       "    Message('note_on', channel=0, note=62, velocity=100, time=0),\n",
       "    Message('note_on', channel=0, note=62, velocity=0, time=120),\n",
       "    Message('note_on', channel=0, note=60, velocity=100, time=0),\n",
       "    Message('note_on', channel=0, note=60, velocity=0, time=120),\n",
       "    Message('note_on', channel=0, note=59, velocity=100, time=0),\n",
       "    Message('note_on', channel=0, note=59, velocity=0, time=120),\n",
       "    Message('note_on', channel=0, note=57, velocity=100, time=0),\n",
       "    Message('note_on', channel=0, note=57, velocity=0, time=120),\n",
       "    Message('note_on', channel=0, note=55, velocity=100, time=0),\n",
       "    Message('note_on', channel=0, note=55, velocity=0, time=120),\n",
       "    Message('note_on', channel=0, note=57, velocity=100, time=0),\n",
       "    Message('note_on', channel=0, note=57, velocity=0, time=120),\n",
       "    Message('note_on', channel=0, note=59, velocity=100, time=0),\n",
       "    Message('note_on', channel=0, note=59, velocity=0, time=120),\n",
       "    Message('note_on', channel=0, note=57, velocity=100, time=0),\n",
       "    Message('note_on', channel=0, note=57, velocity=0, time=120),\n",
       "    Message('note_on', channel=0, note=55, velocity=100, time=0),\n",
       "    Message('note_on', channel=0, note=55, velocity=0, time=120),\n",
       "    Message('note_on', channel=0, note=53, velocity=100, time=0),\n",
       "    Message('note_on', channel=0, note=53, velocity=0, time=120),\n",
       "    Message('note_on', channel=0, note=52, velocity=100, time=0),\n",
       "    Message('note_on', channel=0, note=52, velocity=0, time=120),\n",
       "    Message('note_on', channel=0, note=55, velocity=100, time=0),\n",
       "    Message('note_on', channel=0, note=55, velocity=0, time=120),\n",
       "    Message('note_on', channel=0, note=52, velocity=100, time=0),\n",
       "    Message('note_on', channel=0, note=52, velocity=0, time=120),\n",
       "    Message('note_on', channel=0, note=49, velocity=100, time=0),\n",
       "    Message('note_on', channel=0, note=49, velocity=0, time=120),\n",
       "    Message('note_on', channel=0, note=45, velocity=100, time=0),\n",
       "    Message('note_on', channel=0, note=45, velocity=0, time=120),\n",
       "    Message('note_on', channel=0, note=47, velocity=100, time=0),\n",
       "    Message('note_on', channel=0, note=47, velocity=0, time=120),\n",
       "    Message('note_on', channel=0, note=49, velocity=100, time=0),\n",
       "    Message('note_on', channel=0, note=49, velocity=0, time=120),\n",
       "    Message('note_on', channel=0, note=50, velocity=100, time=0),\n",
       "    Message('note_on', channel=0, note=50, velocity=0, time=120),\n",
       "    Message('note_on', channel=0, note=52, velocity=100, time=0),\n",
       "    Message('note_on', channel=0, note=52, velocity=0, time=120),\n",
       "    Message('note_on', channel=0, note=53, velocity=100, time=0),\n",
       "    Message('note_on', channel=0, note=53, velocity=0, time=120),\n",
       "    Message('note_on', channel=0, note=55, velocity=100, time=0),\n",
       "    Message('note_on', channel=0, note=55, velocity=0, time=120),\n",
       "    Message('note_on', channel=0, note=52, velocity=100, time=0),\n",
       "    Message('note_on', channel=0, note=52, velocity=0, time=120),\n",
       "    Message('note_on', channel=0, note=53, velocity=100, time=0),\n",
       "    Message('note_on', channel=0, note=53, velocity=0, time=120),\n",
       "    Message('note_on', channel=0, note=62, velocity=100, time=0),\n",
       "    Message('note_on', channel=0, note=62, velocity=0, time=120),\n",
       "    Message('note_on', channel=0, note=57, velocity=100, time=0),\n",
       "    Message('note_on', channel=0, note=57, velocity=0, time=120),\n",
       "    Message('note_on', channel=0, note=53, velocity=100, time=0),\n",
       "    Message('note_on', channel=0, note=53, velocity=0, time=120),\n",
       "    Message('note_on', channel=0, note=50, velocity=100, time=0),\n",
       "    Message('note_on', channel=0, note=50, velocity=0, time=120),\n",
       "    Message('note_on', channel=0, note=52, velocity=100, time=0),\n",
       "    Message('note_on', channel=0, note=52, velocity=0, time=120),\n",
       "    Message('note_on', channel=0, note=53, velocity=100, time=0),\n",
       "    Message('note_on', channel=0, note=53, velocity=0, time=120),\n",
       "    Message('note_on', channel=0, note=55, velocity=100, time=0),\n",
       "    Message('note_on', channel=0, note=55, velocity=0, time=120),\n",
       "    Message('note_on', channel=0, note=57, velocity=100, time=0),\n",
       "    Message('note_on', channel=0, note=57, velocity=0, time=120),\n",
       "    Message('note_on', channel=0, note=59, velocity=100, time=0),\n",
       "    Message('note_on', channel=0, note=59, velocity=0, time=120),\n",
       "    Message('note_on', channel=0, note=60, velocity=100, time=0),\n",
       "    Message('note_on', channel=0, note=60, velocity=0, time=120),\n",
       "    Message('note_on', channel=0, note=57, velocity=100, time=0),\n",
       "    Message('note_on', channel=0, note=57, velocity=0, time=120),\n",
       "    Message('note_on', channel=0, note=59, velocity=100, time=0),\n",
       "    Message('note_on', channel=0, note=59, velocity=0, time=120),\n",
       "    Message('note_on', channel=0, note=62, velocity=100, time=0),\n",
       "    Message('note_on', channel=0, note=62, velocity=0, time=120),\n",
       "    Message('note_on', channel=0, note=59, velocity=100, time=0),\n",
       "    Message('note_on', channel=0, note=59, velocity=0, time=120),\n",
       "    Message('note_on', channel=0, note=56, velocity=100, time=0),\n",
       "    Message('note_on', channel=0, note=56, velocity=0, time=120),\n",
       "    Message('note_on', channel=0, note=52, velocity=100, time=0),\n",
       "    Message('note_on', channel=0, note=52, velocity=0, time=120),\n",
       "    Message('note_on', channel=0, note=54, velocity=100, time=0),\n",
       "    Message('note_on', channel=0, note=54, velocity=0, time=120),\n",
       "    Message('note_on', channel=0, note=56, velocity=100, time=0),\n",
       "    Message('note_on', channel=0, note=56, velocity=0, time=120),\n",
       "    Message('note_on', channel=0, note=57, velocity=100, time=0),\n",
       "    Message('note_on', channel=0, note=57, velocity=0, time=120),\n",
       "    Message('note_on', channel=0, note=59, velocity=100, time=0),\n",
       "    Message('note_on', channel=0, note=59, velocity=0, time=120),\n",
       "    Message('note_on', channel=0, note=60, velocity=100, time=0),\n",
       "    Message('note_on', channel=0, note=60, velocity=0, time=120),\n",
       "    Message('note_on', channel=0, note=62, velocity=100, time=0),\n",
       "    Message('note_on', channel=0, note=62, velocity=0, time=120),\n",
       "    Message('note_on', channel=0, note=59, velocity=100, time=0),\n",
       "    Message('note_on', channel=0, note=59, velocity=0, time=120),\n",
       "    Message('note_on', channel=0, note=60, velocity=100, time=0),\n",
       "    Message('note_on', channel=0, note=60, velocity=0, time=120),\n",
       "    Message('note_on', channel=0, note=62, velocity=100, time=0),\n",
       "    Message('note_on', channel=0, note=62, velocity=0, time=120),\n",
       "    Message('note_on', channel=0, note=60, velocity=100, time=0),\n",
       "    Message('note_on', channel=0, note=60, velocity=0, time=120),\n",
       "    Message('note_on', channel=0, note=59, velocity=100, time=0),\n",
       "    Message('note_on', channel=0, note=59, velocity=0, time=120),\n",
       "    Message('note_on', channel=0, note=57, velocity=100, time=0),\n",
       "    Message('note_on', channel=0, note=57, velocity=0, time=120),\n",
       "    Message('note_on', channel=0, note=53, velocity=100, time=0),\n",
       "    Message('note_on', channel=0, note=53, velocity=0, time=120),\n",
       "    Message('note_on', channel=0, note=52, velocity=100, time=0),\n",
       "    Message('note_on', channel=0, note=52, velocity=0, time=120),\n",
       "    Message('note_on', channel=0, note=50, velocity=100, time=0),\n",
       "    Message('note_on', channel=0, note=50, velocity=0, time=120),\n",
       "    Message('note_on', channel=0, note=48, velocity=100, time=0),\n",
       "    Message('note_on', channel=0, note=48, velocity=0, time=120),\n",
       "    Message('note_on', channel=0, note=47, velocity=100, time=0),\n",
       "    Message('note_on', channel=0, note=47, velocity=0, time=120),\n",
       "    Message('note_on', channel=0, note=45, velocity=100, time=0),\n",
       "    Message('note_on', channel=0, note=45, velocity=0, time=120),\n",
       "    Message('note_on', channel=0, note=43, velocity=100, time=0),\n",
       "    Message('note_on', channel=0, note=43, velocity=0, time=120),\n",
       "    Message('note_on', channel=0, note=41, velocity=100, time=0),\n",
       "    Message('note_on', channel=0, note=41, velocity=0, time=120),\n",
       "    Message('note_on', channel=0, note=45, velocity=100, time=0),\n",
       "    Message('note_on', channel=0, note=45, velocity=0, time=120),\n",
       "    Message('note_on', channel=0, note=47, velocity=100, time=0),\n",
       "    Message('note_on', channel=0, note=47, velocity=0, time=120),\n",
       "    Message('note_on', channel=0, note=49, velocity=100, time=0),\n",
       "    Message('note_on', channel=0, note=49, velocity=0, time=120),\n",
       "    Message('note_on', channel=0, note=50, velocity=100, time=0),\n",
       "    Message('note_on', channel=0, note=50, velocity=0, time=120),\n",
       "    Message('note_on', channel=0, note=52, velocity=100, time=0),\n",
       "    Message('note_on', channel=0, note=52, velocity=0, time=120),\n",
       "    Message('note_on', channel=0, note=53, velocity=100, time=0),\n",
       "    Message('note_on', channel=0, note=53, velocity=0, time=120),\n",
       "    Message('note_on', channel=0, note=50, velocity=100, time=0),\n",
       "    Message('note_on', channel=0, note=50, velocity=0, time=120),\n",
       "    Message('note_on', channel=0, note=59, velocity=100, time=0),\n",
       "    Message('note_on', channel=0, note=59, velocity=0, time=120),\n",
       "    Message('note_on', channel=0, note=56, velocity=100, time=0),\n",
       "    Message('note_on', channel=0, note=56, velocity=0, time=120),\n",
       "    Message('note_on', channel=0, note=57, velocity=100, time=0),\n",
       "    Message('note_on', channel=0, note=57, velocity=0, time=120),\n",
       "    Message('note_on', channel=0, note=50, velocity=100, time=0),\n",
       "    Message('note_on', channel=0, note=50, velocity=0, time=120),\n",
       "    Message('note_on', channel=0, note=40, velocity=100, time=0),\n",
       "    Message('note_on', channel=0, note=40, velocity=0, time=120),\n",
       "    Message('note_on', channel=0, note=47, velocity=100, time=0),\n",
       "    Message('note_on', channel=0, note=47, velocity=0, time=120),\n",
       "    Message('note_on', channel=0, note=50, velocity=100, time=0),\n",
       "    Message('note_on', channel=0, note=50, velocity=0, time=120),\n",
       "    Message('note_on', channel=0, note=57, velocity=100, time=0),\n",
       "    Message('note_on', channel=0, note=57, velocity=0, time=120),\n",
       "    Message('note_on', channel=0, note=56, velocity=100, time=0),\n",
       "    Message('note_on', channel=0, note=56, velocity=0, time=120),\n",
       "    Message('note_on', channel=0, note=59, velocity=100, time=0),\n",
       "    Message('note_on', channel=0, note=59, velocity=0, time=120),\n",
       "    Message('note_on', channel=0, note=52, velocity=100, time=0),\n",
       "    Message('note_on', channel=0, note=52, velocity=0, time=120),\n",
       "    Message('note_on', channel=0, note=56, velocity=100, time=0),\n",
       "    Message('note_on', channel=0, note=56, velocity=0, time=120),\n",
       "    Message('note_on', channel=0, note=59, velocity=100, time=0),\n",
       "    Message('note_on', channel=0, note=59, velocity=0, time=120),\n",
       "    Message('note_on', channel=0, note=62, velocity=100, time=0),\n",
       "    Message('note_on', channel=0, note=62, velocity=0, time=120),\n",
       "    Message('note_on', channel=0, note=60, velocity=100, time=0),\n",
       "    Message('note_on', channel=0, note=60, velocity=0, time=120),\n",
       "    Message('note_on', channel=0, note=56, velocity=100, time=0),\n",
       "    Message('note_on', channel=0, note=56, velocity=0, time=120),\n",
       "    Message('note_on', channel=0, note=57, velocity=100, time=0),\n",
       "    Message('note_on', channel=0, note=57, velocity=0, time=120),\n",
       "    Message('note_on', channel=0, note=51, velocity=100, time=0),\n",
       "    Message('note_on', channel=0, note=51, velocity=0, time=120),\n",
       "    Message('note_on', channel=0, note=57, velocity=100, time=0),\n",
       "    Message('note_on', channel=0, note=57, velocity=0, time=120),\n",
       "    Message('note_on', channel=0, note=59, velocity=100, time=0),\n",
       "    Message('note_on', channel=0, note=59, velocity=0, time=120),\n",
       "    Message('note_on', channel=0, note=57, velocity=100, time=0),\n",
       "    Message('note_on', channel=0, note=57, velocity=0, time=120),\n",
       "    Message('note_on', channel=0, note=51, velocity=100, time=0),\n",
       "    Message('note_on', channel=0, note=51, velocity=0, time=120),\n",
       "    Message('note_on', channel=0, note=57, velocity=100, time=0),\n",
       "    Message('note_on', channel=0, note=57, velocity=0, time=120),\n",
       "    Message('note_on', channel=0, note=59, velocity=100, time=0),\n",
       "    Message('note_on', channel=0, note=59, velocity=0, time=120),\n",
       "    Message('note_on', channel=0, note=57, velocity=100, time=0),\n",
       "    Message('note_on', channel=0, note=57, velocity=0, time=120),\n",
       "    Message('note_on', channel=0, note=51, velocity=100, time=0),\n",
       "    Message('note_on', channel=0, note=51, velocity=0, time=120),\n",
       "    Message('note_on', channel=0, note=57, velocity=100, time=0),\n",
       "    Message('note_on', channel=0, note=57, velocity=0, time=120),\n",
       "    Message('note_on', channel=0, note=59, velocity=100, time=0),\n",
       "    Message('note_on', channel=0, note=59, velocity=0, time=120),\n",
       "    Message('note_on', channel=0, note=60, velocity=100, time=0),\n",
       "    Message('note_on', channel=0, note=60, velocity=0, time=120),\n",
       "    Message('note_on', channel=0, note=52, velocity=100, time=0),\n",
       "    Message('note_on', channel=0, note=52, velocity=0, time=120),\n",
       "    Message('note_on', channel=0, note=57, velocity=100, time=0),\n",
       "    Message('note_on', channel=0, note=57, velocity=0, time=120),\n",
       "    Message('note_on', channel=0, note=59, velocity=100, time=0),\n",
       "    Message('note_on', channel=0, note=59, velocity=0, time=120),\n",
       "    Message('note_on', channel=0, note=60, velocity=100, time=0),\n",
       "    Message('note_on', channel=0, note=60, velocity=0, time=120),\n",
       "    Message('note_on', channel=0, note=52, velocity=100, time=0),\n",
       "    Message('note_on', channel=0, note=52, velocity=0, time=120),\n",
       "    Message('note_on', channel=0, note=57, velocity=100, time=0),\n",
       "    Message('note_on', channel=0, note=57, velocity=0, time=120),\n",
       "    Message('note_on', channel=0, note=59, velocity=100, time=0),\n",
       "    Message('note_on', channel=0, note=59, velocity=0, time=120),\n",
       "    Message('note_on', channel=0, note=60, velocity=100, time=0),\n",
       "    Message('note_on', channel=0, note=60, velocity=0, time=120),\n",
       "    Message('note_on', channel=0, note=52, velocity=100, time=0),\n",
       "    Message('note_on', channel=0, note=52, velocity=0, time=120),\n",
       "    Message('note_on', channel=0, note=59, velocity=100, time=0),\n",
       "    Message('note_on', channel=0, note=59, velocity=0, time=120),\n",
       "    Message('note_on', channel=0, note=60, velocity=100, time=0),\n",
       "    Message('note_on', channel=0, note=60, velocity=0, time=120),\n",
       "    Message('note_on', channel=0, note=62, velocity=100, time=0),\n",
       "    Message('note_on', channel=0, note=62, velocity=0, time=120),\n",
       "    Message('note_on', channel=0, note=52, velocity=100, time=0),\n",
       "    Message('note_on', channel=0, note=52, velocity=0, time=120),\n",
       "    Message('note_on', channel=0, note=59, velocity=100, time=0),\n",
       "    Message('note_on', channel=0, note=59, velocity=0, time=120),\n",
       "    Message('note_on', channel=0, note=60, velocity=100, time=0),\n",
       "    Message('note_on', channel=0, note=60, velocity=0, time=120),\n",
       "    Message('note_on', channel=0, note=62, velocity=100, time=0),\n",
       "    Message('note_on', channel=0, note=62, velocity=0, time=120),\n",
       "    Message('note_on', channel=0, note=52, velocity=100, time=0),\n",
       "    Message('note_on', channel=0, note=52, velocity=0, time=120),\n",
       "    Message('note_on', channel=0, note=59, velocity=100, time=0),\n",
       "    Message('note_on', channel=0, note=59, velocity=0, time=120),\n",
       "    Message('note_on', channel=0, note=60, velocity=100, time=0),\n",
       "    Message('note_on', channel=0, note=60, velocity=0, time=120),\n",
       "    Message('note_on', channel=0, note=62, velocity=100, time=0),\n",
       "    Message('note_on', channel=0, note=62, velocity=0, time=120),\n",
       "    Message('note_on', channel=0, note=59, velocity=100, time=0),\n",
       "    Message('note_on', channel=0, note=59, velocity=0, time=120),\n",
       "    Message('note_on', channel=0, note=56, velocity=100, time=0),\n",
       "    Message('note_on', channel=0, note=56, velocity=0, time=120),\n",
       "    Message('note_on', channel=0, note=54, velocity=100, time=0),\n",
       "    Message('note_on', channel=0, note=54, velocity=0, time=120),\n",
       "    Message('note_on', channel=0, note=52, velocity=100, time=0),\n",
       "    Message('note_on', channel=0, note=52, velocity=0, time=120),\n",
       "    Message('note_on', channel=0, note=60, velocity=100, time=0),\n",
       "    Message('note_on', channel=0, note=60, velocity=0, time=120),\n",
       "    Message('note_on', channel=0, note=57, velocity=100, time=0),\n",
       "    Message('note_on', channel=0, note=57, velocity=0, time=120),\n",
       "    Message('note_on', channel=0, note=56, velocity=100, time=0),\n",
       "    Message('note_on', channel=0, note=56, velocity=0, time=120),\n",
       "    Message('note_on', channel=0, note=57, velocity=100, time=0),\n",
       "    Message('note_on', channel=0, note=57, velocity=0, time=120),\n",
       "    Message('note_on', channel=0, note=60, velocity=100, time=0),\n",
       "    Message('note_on', channel=0, note=60, velocity=0, time=120),\n",
       "    Message('note_on', channel=0, note=57, velocity=100, time=0),\n",
       "    Message('note_on', channel=0, note=57, velocity=0, time=120),\n",
       "    Message('note_on', channel=0, note=56, velocity=100, time=0),\n",
       "    Message('note_on', channel=0, note=56, velocity=0, time=120),\n",
       "    Message('note_on', channel=0, note=57, velocity=100, time=0),\n",
       "    Message('note_on', channel=0, note=57, velocity=0, time=120),\n",
       "    Message('note_on', channel=0, note=60, velocity=100, time=0),\n",
       "    Message('note_on', channel=0, note=60, velocity=0, time=120),\n",
       "    Message('note_on', channel=0, note=57, velocity=100, time=0),\n",
       "    Message('note_on', channel=0, note=57, velocity=0, time=120),\n",
       "    Message('note_on', channel=0, note=54, velocity=100, time=0),\n",
       "    Message('note_on', channel=0, note=54, velocity=0, time=120),\n",
       "    Message('note_on', channel=0, note=51, velocity=100, time=0),\n",
       "    Message('note_on', channel=0, note=51, velocity=0, time=120),\n",
       "    Message('note_on', channel=0, note=60, velocity=100, time=0),\n",
       "    Message('note_on', channel=0, note=60, velocity=0, time=120),\n",
       "    Message('note_on', channel=0, note=57, velocity=100, time=0),\n",
       "    Message('note_on', channel=0, note=57, velocity=0, time=120),\n",
       "    Message('note_on', channel=0, note=56, velocity=100, time=0),\n",
       "    Message('note_on', channel=0, note=56, velocity=0, time=120),\n",
       "    Message('note_on', channel=0, note=57, velocity=100, time=0),\n",
       "    Message('note_on', channel=0, note=57, velocity=0, time=120),\n",
       "    Message('note_on', channel=0, note=60, velocity=100, time=0),\n",
       "    Message('note_on', channel=0, note=60, velocity=0, time=120),\n",
       "    Message('note_on', channel=0, note=57, velocity=100, time=0),\n",
       "    Message('note_on', channel=0, note=57, velocity=0, time=120),\n",
       "    Message('note_on', channel=0, note=56, velocity=100, time=0),\n",
       "    Message('note_on', channel=0, note=56, velocity=0, time=120),\n",
       "    Message('note_on', channel=0, note=57, velocity=100, time=0),\n",
       "    Message('note_on', channel=0, note=57, velocity=0, time=120),\n",
       "    Message('note_on', channel=0, note=60, velocity=100, time=0),\n",
       "    Message('note_on', channel=0, note=60, velocity=0, time=120),\n",
       "    Message('note_on', channel=0, note=57, velocity=100, time=0),\n",
       "    Message('note_on', channel=0, note=57, velocity=0, time=120),\n",
       "    Message('note_on', channel=0, note=53, velocity=100, time=0),\n",
       "    Message('note_on', channel=0, note=53, velocity=0, time=120),\n",
       "    Message('note_on', channel=0, note=50, velocity=100, time=0),\n",
       "    Message('note_on', channel=0, note=50, velocity=0, time=120),\n",
       "    Message('note_on', channel=0, note=59, velocity=100, time=0),\n",
       "    Message('note_on', channel=0, note=59, velocity=0, time=120),\n",
       "    Message('note_on', channel=0, note=56, velocity=100, time=0),\n",
       "    Message('note_on', channel=0, note=56, velocity=0, time=120),\n",
       "    Message('note_on', channel=0, note=54, velocity=100, time=0),\n",
       "    Message('note_on', channel=0, note=54, velocity=0, time=120),\n",
       "    Message('note_on', channel=0, note=56, velocity=100, time=0),\n",
       "    Message('note_on', channel=0, note=56, velocity=0, time=120),\n",
       "    Message('note_on', channel=0, note=59, velocity=100, time=0),\n",
       "    Message('note_on', channel=0, note=59, velocity=0, time=120),\n",
       "    Message('note_on', channel=0, note=53, velocity=100, time=0),\n",
       "    Message('note_on', channel=0, note=53, velocity=0, time=120),\n",
       "    Message('note_on', channel=0, note=52, velocity=100, time=0),\n",
       "    Message('note_on', channel=0, note=52, velocity=0, time=120),\n",
       "    Message('note_on', channel=0, note=53, velocity=100, time=0),\n",
       "    Message('note_on', channel=0, note=53, velocity=0, time=120),\n",
       "    Message('note_on', channel=0, note=59, velocity=100, time=0),\n",
       "    Message('note_on', channel=0, note=59, velocity=0, time=120),\n",
       "    Message('note_on', channel=0, note=52, velocity=100, time=0),\n",
       "    Message('note_on', channel=0, note=52, velocity=0, time=120),\n",
       "    Message('note_on', channel=0, note=50, velocity=100, time=0),\n",
       "    Message('note_on', channel=0, note=50, velocity=0, time=120),\n",
       "    Message('note_on', channel=0, note=48, velocity=100, time=0),\n",
       "    Message('note_on', channel=0, note=48, velocity=0, time=120),\n",
       "    Message('note_on', channel=0, note=45, velocity=100, time=0),\n",
       "    Message('note_on', channel=0, note=45, velocity=0, time=120),\n",
       "    Message('note_on', channel=0, note=48, velocity=100, time=0),\n",
       "    Message('note_on', channel=0, note=48, velocity=0, time=120),\n",
       "    Message('note_on', channel=0, note=52, velocity=100, time=0),\n",
       "    Message('note_on', channel=0, note=52, velocity=0, time=120),\n",
       "    Message('note_on', channel=0, note=48, velocity=100, time=0),\n",
       "    Message('note_on', channel=0, note=48, velocity=0, time=120),\n",
       "    Message('note_on', channel=0, note=45, velocity=100, time=0),\n",
       "    Message('note_on', channel=0, note=45, velocity=0, time=120),\n",
       "    Message('note_on', channel=0, note=48, velocity=100, time=0),\n",
       "    Message('note_on', channel=0, note=48, velocity=0, time=120),\n",
       "    Message('note_on', channel=0, note=52, velocity=100, time=0),\n",
       "    Message('note_on', channel=0, note=52, velocity=0, time=120),\n",
       "    Message('note_on', channel=0, note=57, velocity=100, time=0),\n",
       "    Message('note_on', channel=0, note=57, velocity=0, time=120),\n",
       "    Message('note_on', channel=0, note=60, velocity=100, time=0),\n",
       "    Message('note_on', channel=0, note=60, velocity=0, time=120),\n",
       "    Message('note_on', channel=0, note=57, velocity=100, time=0),\n",
       "    Message('note_on', channel=0, note=57, velocity=0, time=120),\n",
       "    Message('note_on', channel=0, note=52, velocity=100, time=0),\n",
       "    Message('note_on', channel=0, note=52, velocity=0, time=120),\n",
       "    Message('note_on', channel=0, note=48, velocity=100, time=0),\n",
       "    Message('note_on', channel=0, note=48, velocity=0, time=120),\n",
       "    Message('note_on', channel=0, note=45, velocity=100, time=0),\n",
       "    Message('note_on', channel=0, note=45, velocity=0, time=120),\n",
       "    Message('note_on', channel=0, note=48, velocity=100, time=0),\n",
       "    Message('note_on', channel=0, note=48, velocity=0, time=120),\n",
       "    Message('note_on', channel=0, note=52, velocity=100, time=0),\n",
       "    Message('note_on', channel=0, note=52, velocity=0, time=120),\n",
       "    Message('note_on', channel=0, note=48, velocity=100, time=0),\n",
       "    Message('note_on', channel=0, note=48, velocity=0, time=120),\n",
       "    Message('note_on', channel=0, note=45, velocity=100, time=0),\n",
       "    Message('note_on', channel=0, note=45, velocity=0, time=120),\n",
       "    Message('note_on', channel=0, note=48, velocity=100, time=0),\n",
       "    Message('note_on', channel=0, note=48, velocity=0, time=120),\n",
       "    Message('note_on', channel=0, note=52, velocity=100, time=0),\n",
       "    Message('note_on', channel=0, note=52, velocity=0, time=120),\n",
       "    Message('note_on', channel=0, note=57, velocity=100, time=0),\n",
       "    Message('note_on', channel=0, note=57, velocity=0, time=120),\n",
       "    Message('note_on', channel=0, note=60, velocity=100, time=0),\n",
       "    Message('note_on', channel=0, note=60, velocity=0, time=120),\n",
       "    Message('note_on', channel=0, note=57, velocity=100, time=0),\n",
       "    Message('note_on', channel=0, note=57, velocity=0, time=120),\n",
       "    Message('note_on', channel=0, note=53, velocity=100, time=0),\n",
       "    Message('note_on', channel=0, note=53, velocity=0, time=120),\n",
       "    Message('note_on', channel=0, note=50, velocity=100, time=0),\n",
       "    Message('note_on', channel=0, note=50, velocity=0, time=120),\n",
       "    Message('note_on', channel=0, note=47, velocity=100, time=0),\n",
       "    Message('note_on', channel=0, note=47, velocity=0, time=120),\n",
       "    Message('note_on', channel=0, note=50, velocity=100, time=0),\n",
       "    Message('note_on', channel=0, note=50, velocity=0, time=120),\n",
       "    Message('note_on', channel=0, note=55, velocity=100, time=0),\n",
       "    Message('note_on', channel=0, note=55, velocity=0, time=120),\n",
       "    Message('note_on', channel=0, note=50, velocity=100, time=0),\n",
       "    Message('note_on', channel=0, note=50, velocity=0, time=120),\n",
       "    Message('note_on', channel=0, note=47, velocity=100, time=0),\n",
       "    Message('note_on', channel=0, note=47, velocity=0, time=120),\n",
       "    Message('note_on', channel=0, note=50, velocity=100, time=0),\n",
       "    Message('note_on', channel=0, note=50, velocity=0, time=120),\n",
       "    Message('note_on', channel=0, note=55, velocity=100, time=0),\n",
       "    Message('note_on', channel=0, note=55, velocity=0, time=120),\n",
       "    Message('note_on', channel=0, note=59, velocity=100, time=0),\n",
       "    Message('note_on', channel=0, note=59, velocity=0, time=120),\n",
       "    Message('note_on', channel=0, note=62, velocity=100, time=0),\n",
       "    Message('note_on', channel=0, note=62, velocity=0, time=120),\n",
       "    Message('note_on', channel=0, note=59, velocity=100, time=0),\n",
       "    Message('note_on', channel=0, note=59, velocity=0, time=120),\n",
       "    Message('note_on', channel=0, note=55, velocity=100, time=0),\n",
       "    Message('note_on', channel=0, note=55, velocity=0, time=120),\n",
       "    Message('note_on', channel=0, note=53, velocity=100, time=0),\n",
       "    Message('note_on', channel=0, note=53, velocity=0, time=120),\n",
       "    Message('note_on', channel=0, note=47, velocity=100, time=0),\n",
       "    Message('note_on', channel=0, note=47, velocity=0, time=120),\n",
       "    Message('note_on', channel=0, note=53, velocity=100, time=0),\n",
       "    Message('note_on', channel=0, note=53, velocity=0, time=120),\n",
       "    Message('note_on', channel=0, note=55, velocity=100, time=0),\n",
       "    Message('note_on', channel=0, note=55, velocity=0, time=120),\n",
       "    Message('note_on', channel=0, note=53, velocity=100, time=0),\n",
       "    Message('note_on', channel=0, note=53, velocity=0, time=120),\n",
       "    Message('note_on', channel=0, note=47, velocity=100, time=0),\n",
       "    Message('note_on', channel=0, note=47, velocity=0, time=120),\n",
       "    Message('note_on', channel=0, note=53, velocity=100, time=0),\n",
       "    Message('note_on', channel=0, note=53, velocity=0, time=120),\n",
       "    Message('note_on', channel=0, note=55, velocity=100, time=0),\n",
       "    Message('note_on', channel=0, note=55, velocity=0, time=120),\n",
       "    Message('note_on', channel=0, note=53, velocity=100, time=0),\n",
       "    Message('note_on', channel=0, note=53, velocity=0, time=120),\n",
       "    Message('note_on', channel=0, note=62, velocity=100, time=0),\n",
       "    Message('note_on', channel=0, note=62, velocity=0, time=120),\n",
       "    Message('note_on', channel=0, note=59, velocity=100, time=0),\n",
       "    Message('note_on', channel=0, note=59, velocity=0, time=120),\n",
       "    Message('note_on', channel=0, note=55, velocity=100, time=0),\n",
       "    Message('note_on', channel=0, note=55, velocity=0, time=120),\n",
       "    Message('note_on', channel=0, note=52, velocity=100, time=0),\n",
       "    Message('note_on', channel=0, note=52, velocity=0, time=120),\n",
       "    Message('note_on', channel=0, note=48, velocity=100, time=0),\n",
       "    Message('note_on', channel=0, note=48, velocity=0, time=120),\n",
       "    Message('note_on', channel=0, note=52, velocity=100, time=0),\n",
       "    Message('note_on', channel=0, note=52, velocity=0, time=120),\n",
       "    Message('note_on', channel=0, note=55, velocity=100, time=0),\n",
       "    Message('note_on', channel=0, note=55, velocity=0, time=120),\n",
       "    Message('note_on', channel=0, note=52, velocity=100, time=0),\n",
       "    Message('note_on', channel=0, note=52, velocity=0, time=120),\n",
       "    Message('note_on', channel=0, note=48, velocity=100, time=0),\n",
       "    Message('note_on', channel=0, note=48, velocity=0, time=120),\n",
       "    Message('note_on', channel=0, note=52, velocity=100, time=0),\n",
       "    Message('note_on', channel=0, note=52, velocity=0, time=120),\n",
       "    Message('note_on', channel=0, note=55, velocity=100, time=0),\n",
       "    Message('note_on', channel=0, note=55, velocity=0, time=120),\n",
       "    Message('note_on', channel=0, note=58, velocity=100, time=0),\n",
       "    Message('note_on', channel=0, note=58, velocity=0, time=120),\n",
       "    Message('note_on', channel=0, note=62, velocity=100, time=0),\n",
       "    Message('note_on', channel=0, note=62, velocity=0, time=120),\n",
       "    Message('note_on', channel=0, note=58, velocity=100, time=0),\n",
       "    Message('note_on', channel=0, note=58, velocity=0, time=120),\n",
       "    Message('note_on', channel=0, note=55, velocity=100, time=0),\n",
       "    Message('note_on', channel=0, note=55, velocity=0, time=120),\n",
       "    Message('note_on', channel=0, note=52, velocity=100, time=0),\n",
       "    Message('note_on', channel=0, note=52, velocity=0, time=120),\n",
       "    Message('note_on', channel=0, note=48, velocity=100, time=0),\n",
       "    Message('note_on', channel=0, note=48, velocity=0, time=120),\n",
       "    Message('note_on', channel=0, note=52, velocity=100, time=0),\n",
       "    Message('note_on', channel=0, note=52, velocity=0, time=120),\n",
       "    Message('note_on', channel=0, note=55, velocity=100, time=0),\n",
       "    Message('note_on', channel=0, note=55, velocity=0, time=120),\n",
       "    Message('note_on', channel=0, note=52, velocity=100, time=0),\n",
       "    Message('note_on', channel=0, note=52, velocity=0, time=120),\n",
       "    Message('note_on', channel=0, note=48, velocity=100, time=0),\n",
       "    Message('note_on', channel=0, note=48, velocity=0, time=120),\n",
       "    Message('note_on', channel=0, note=52, velocity=100, time=0),\n",
       "    Message('note_on', channel=0, note=52, velocity=0, time=120),\n",
       "    Message('note_on', channel=0, note=55, velocity=100, time=0),\n",
       "    Message('note_on', channel=0, note=55, velocity=0, time=120),\n",
       "    Message('note_on', channel=0, note=60, velocity=100, time=0),\n",
       "    Message('note_on', channel=0, note=60, velocity=0, time=120),\n",
       "    Message('note_on', channel=0, note=58, velocity=100, time=0),\n",
       "    Message('note_on', channel=0, note=58, velocity=0, time=120),\n",
       "    Message('note_on', channel=0, note=57, velocity=100, time=0),\n",
       "    Message('note_on', channel=0, note=57, velocity=0, time=120),\n",
       "    Message('note_on', channel=0, note=55, velocity=100, time=0),\n",
       "    Message('note_on', channel=0, note=55, velocity=0, time=120),\n",
       "    Message('note_on', channel=0, note=57, velocity=100, time=0),\n",
       "    Message('note_on', channel=0, note=57, velocity=0, time=120),\n",
       "    Message('note_on', channel=0, note=53, velocity=100, time=0),\n",
       "    Message('note_on', channel=0, note=53, velocity=0, time=120),\n",
       "    Message('note_on', channel=0, note=52, velocity=100, time=0),\n",
       "    Message('note_on', channel=0, note=52, velocity=0, time=120),\n",
       "    Message('note_on', channel=0, note=53, velocity=100, time=0),\n",
       "    Message('note_on', channel=0, note=53, velocity=0, time=120),\n",
       "    Message('note_on', channel=0, note=55, velocity=100, time=0),\n",
       "    Message('note_on', channel=0, note=55, velocity=0, time=120),\n",
       "    Message('note_on', channel=0, note=57, velocity=100, time=0),\n",
       "    Message('note_on', channel=0, note=57, velocity=0, time=120),\n",
       "    Message('note_on', channel=0, note=59, velocity=100, time=0),\n",
       "    Message('note_on', channel=0, note=59, velocity=0, time=120),\n",
       "    Message('note_on', channel=0, note=60, velocity=100, time=0),\n",
       "    Message('note_on', channel=0, note=60, velocity=0, time=120),\n",
       "    Message('note_on', channel=0, note=62, velocity=100, time=0),\n",
       "    Message('note_on', channel=0, note=62, velocity=0, time=120),\n",
       "    Message('note_on', channel=0, note=57, velocity=100, time=0),\n",
       "    Message('note_on', channel=0, note=57, velocity=0, time=120),\n",
       "    Message('note_on', channel=0, note=53, velocity=100, time=0),\n",
       "    Message('note_on', channel=0, note=53, velocity=0, time=120),\n",
       "    Message('note_on', channel=0, note=50, velocity=100, time=0),\n",
       "    Message('note_on', channel=0, note=50, velocity=0, time=120),\n",
       "    Message('note_on', channel=0, note=55, velocity=100, time=0),\n",
       "    Message('note_on', channel=0, note=55, velocity=0, time=120),\n",
       "    Message('note_on', channel=0, note=52, velocity=100, time=0),\n",
       "    Message('note_on', channel=0, note=52, velocity=0, time=120),\n",
       "    Message('note_on', channel=0, note=50, velocity=100, time=0),\n",
       "    Message('note_on', channel=0, note=50, velocity=0, time=120),\n",
       "    Message('note_on', channel=0, note=52, velocity=100, time=0),\n",
       "    Message('note_on', channel=0, note=52, velocity=0, time=120),\n",
       "    Message('note_on', channel=0, note=53, velocity=100, time=0),\n",
       "    Message('note_on', channel=0, note=53, velocity=0, time=120),\n",
       "    Message('note_on', channel=0, note=55, velocity=100, time=0),\n",
       "    Message('note_on', channel=0, note=55, velocity=0, time=120),\n",
       "    Message('note_on', channel=0, note=57, velocity=100, time=0),\n",
       "    Message('note_on', channel=0, note=57, velocity=0, time=120),\n",
       "    Message('note_on', channel=0, note=59, velocity=100, time=0),\n",
       "    Message('note_on', channel=0, note=59, velocity=0, time=120),\n",
       "    Message('note_on', channel=0, note=60, velocity=100, time=0),\n",
       "    Message('note_on', channel=0, note=60, velocity=0, time=120),\n",
       "    Message('note_on', channel=0, note=55, velocity=100, time=0),\n",
       "    Message('note_on', channel=0, note=55, velocity=0, time=120),\n",
       "    Message('note_on', channel=0, note=52, velocity=100, time=0),\n",
       "    Message('note_on', channel=0, note=52, velocity=0, time=120),\n",
       "    Message('note_on', channel=0, note=48, velocity=100, time=0),\n",
       "    Message('note_on', channel=0, note=48, velocity=0, time=120),\n",
       "    Message('note_on', channel=0, note=53, velocity=100, time=0),\n",
       "    Message('note_on', channel=0, note=53, velocity=0, time=120),\n",
       "    Message('note_on', channel=0, note=50, velocity=100, time=0),\n",
       "    Message('note_on', channel=0, note=50, velocity=0, time=120),\n",
       "    Message('note_on', channel=0, note=53, velocity=100, time=0),\n",
       "    Message('note_on', channel=0, note=53, velocity=0, time=120),\n",
       "    Message('note_on', channel=0, note=55, velocity=100, time=0),\n",
       "    Message('note_on', channel=0, note=55, velocity=0, time=120),\n",
       "    Message('note_on', channel=0, note=53, velocity=100, time=0),\n",
       "    Message('note_on', channel=0, note=53, velocity=0, time=120),\n",
       "    Message('note_on', channel=0, note=50, velocity=100, time=0),\n",
       "    Message('note_on', channel=0, note=50, velocity=0, time=120),\n",
       "    Message('note_on', channel=0, note=53, velocity=100, time=0),\n",
       "    Message('note_on', channel=0, note=53, velocity=0, time=120),\n",
       "    Message('note_on', channel=0, note=55, velocity=100, time=0),\n",
       "    Message('note_on', channel=0, note=55, velocity=0, time=120),\n",
       "    Message('note_on', channel=0, note=53, velocity=100, time=0),\n",
       "    Message('note_on', channel=0, note=53, velocity=0, time=120),\n",
       "    Message('note_on', channel=0, note=48, velocity=100, time=0),\n",
       "    Message('note_on', channel=0, note=48, velocity=0, time=120),\n",
       "    Message('note_on', channel=0, note=53, velocity=100, time=0),\n",
       "    Message('note_on', channel=0, note=53, velocity=0, time=120),\n",
       "    Message('note_on', channel=0, note=55, velocity=100, time=0),\n",
       "    Message('note_on', channel=0, note=55, velocity=0, time=120),\n",
       "    Message('note_on', channel=0, note=53, velocity=100, time=0),\n",
       "    Message('note_on', channel=0, note=53, velocity=0, time=120),\n",
       "    Message('note_on', channel=0, note=47, velocity=100, time=0),\n",
       "    Message('note_on', channel=0, note=47, velocity=0, time=120),\n",
       "    Message('note_on', channel=0, note=53, velocity=100, time=0),\n",
       "    Message('note_on', channel=0, note=53, velocity=0, time=120),\n",
       "    Message('note_on', channel=0, note=55, velocity=100, time=0),\n",
       "    Message('note_on', channel=0, note=55, velocity=0, time=120),\n",
       "    Message('note_on', channel=0, note=53, velocity=100, time=0),\n",
       "    Message('note_on', channel=0, note=53, velocity=0, time=120),\n",
       "    Message('note_on', channel=0, note=45, velocity=100, time=0),\n",
       "    Message('note_on', channel=0, note=45, velocity=0, time=120),\n",
       "    Message('note_on', channel=0, note=53, velocity=100, time=0),\n",
       "    Message('note_on', channel=0, note=53, velocity=0, time=120),\n",
       "    Message('note_on', channel=0, note=55, velocity=100, time=0),\n",
       "    Message('note_on', channel=0, note=55, velocity=0, time=120),\n",
       "    Message('note_on', channel=0, note=53, velocity=100, time=0),\n",
       "    Message('note_on', channel=0, note=53, velocity=0, time=120),\n",
       "    Message('note_on', channel=0, note=43, velocity=100, time=0),\n",
       "    Message('note_on', channel=0, note=43, velocity=0, time=120),\n",
       "    Message('note_on', channel=0, note=53, velocity=100, time=0),\n",
       "    Message('note_on', channel=0, note=53, velocity=0, time=120),\n",
       "    Message('note_on', channel=0, note=55, velocity=100, time=0),\n",
       "    Message('note_on', channel=0, note=55, velocity=0, time=120),\n",
       "    Message('note_on', channel=0, note=52, velocity=100, time=0),\n",
       "    Message('note_on', channel=0, note=52, velocity=0, time=120),\n",
       "    Message('note_on', channel=0, note=43, velocity=100, time=0),\n",
       "    Message('note_on', channel=0, note=43, velocity=0, time=120),\n",
       "    Message('note_on', channel=0, note=36, velocity=100, time=0),\n",
       "    Message('note_on', channel=0, note=36, velocity=0, time=120),\n",
       "    Message('note_on', channel=0, note=43, velocity=100, time=0),\n",
       "    Message('note_on', channel=0, note=43, velocity=0, time=120),\n",
       "    Message('note_on', channel=0, note=52, velocity=100, time=0),\n",
       "    Message('note_on', channel=0, note=52, velocity=0, time=120),\n",
       "    Message('note_on', channel=0, note=43, velocity=100, time=0),\n",
       "    Message('note_on', channel=0, note=43, velocity=0, time=120),\n",
       "    Message('note_on', channel=0, note=36, velocity=100, time=0),\n",
       "    Message('note_on', channel=0, note=36, velocity=0, time=120),\n",
       "    Message('note_on', channel=0, note=43, velocity=100, time=0),\n",
       "    Message('note_on', channel=0, note=43, velocity=0, time=120),\n",
       "    Message('note_on', channel=0, note=52, velocity=100, time=0),\n",
       "    Message('note_on', channel=0, note=52, velocity=0, time=120),\n",
       "    Message('note_on', channel=0, note=50, velocity=100, time=0),\n",
       "    Message('note_on', channel=0, note=50, velocity=0, time=120),\n",
       "    Message('note_on', channel=0, note=48, velocity=100, time=0),\n",
       "    Message('note_on', channel=0, note=48, velocity=0, time=120),\n",
       "    Message('note_on', channel=0, note=47, velocity=100, time=0),\n",
       "    Message('note_on', channel=0, note=47, velocity=0, time=120),\n",
       "    Message('note_on', channel=0, note=45, velocity=100, time=0),\n",
       "    Message('note_on', channel=0, note=45, velocity=0, time=120),\n",
       "    Message('note_on', channel=0, note=52, velocity=100, time=0),\n",
       "    Message('note_on', channel=0, note=52, velocity=0, time=120),\n",
       "    Message('note_on', channel=0, note=60, velocity=100, time=0),\n",
       "    Message('note_on', channel=0, note=60, velocity=0, time=120),\n",
       "    Message('note_on', channel=0, note=52, velocity=100, time=0),\n",
       "    Message('note_on', channel=0, note=52, velocity=0, time=120),\n",
       "    Message('note_on', channel=0, note=45, velocity=100, time=0),\n",
       "    Message('note_on', channel=0, note=45, velocity=0, time=120),\n",
       "    Message('note_on', channel=0, note=52, velocity=100, time=0),\n",
       "    Message('note_on', channel=0, note=52, velocity=0, time=120),\n",
       "    Message('note_on', channel=0, note=60, velocity=100, time=0),\n",
       "    Message('note_on', channel=0, note=60, velocity=0, time=120),\n",
       "    Message('note_on', channel=0, note=52, velocity=100, time=0),\n",
       "    Message('note_on', channel=0, note=52, velocity=0, time=120),\n",
       "    Message('note_on', channel=0, note=45, velocity=100, time=0),\n",
       "    Message('note_on', channel=0, note=45, velocity=0, time=120),\n",
       "    Message('note_on', channel=0, note=55, velocity=100, time=0),\n",
       "    Message('note_on', channel=0, note=55, velocity=0, time=120),\n",
       "    Message('note_on', channel=0, note=53, velocity=100, time=0),\n",
       "    Message('note_on', channel=0, note=53, velocity=0, time=120),\n",
       "    Message('note_on', channel=0, note=52, velocity=100, time=0),\n",
       "    Message('note_on', channel=0, note=52, velocity=0, time=120),\n",
       "    Message('note_on', channel=0, note=53, velocity=100, time=0),\n",
       "    Message('note_on', channel=0, note=53, velocity=0, time=120),\n",
       "    Message('note_on', channel=0, note=45, velocity=100, time=0),\n",
       "    Message('note_on', channel=0, note=45, velocity=0, time=120),\n",
       "    Message('note_on', channel=0, note=38, velocity=100, time=0),\n",
       "    Message('note_on', channel=0, note=38, velocity=0, time=120),\n",
       "    Message('note_on', channel=0, note=45, velocity=100, time=0),\n",
       "    Message('note_on', channel=0, note=45, velocity=0, time=120),\n",
       "    Message('note_on', channel=0, note=53, velocity=100, time=0),\n",
       "    Message('note_on', channel=0, note=53, velocity=0, time=120),\n",
       "    Message('note_on', channel=0, note=45, velocity=100, time=0),\n",
       "    Message('note_on', channel=0, note=45, velocity=0, time=120),\n",
       "    Message('note_on', channel=0, note=38, velocity=100, time=0),\n",
       "    Message('note_on', channel=0, note=38, velocity=0, time=120),\n",
       "    Message('note_on', channel=0, note=45, velocity=100, time=0),\n",
       "    Message('note_on', channel=0, note=45, velocity=0, time=120),\n",
       "    Message('note_on', channel=0, note=53, velocity=100, time=0),\n",
       "    Message('note_on', channel=0, note=53, velocity=0, time=120),\n",
       "    Message('note_on', channel=0, note=52, velocity=100, time=0),\n",
       "    Message('note_on', channel=0, note=52, velocity=0, time=120),\n",
       "    Message('note_on', channel=0, note=50, velocity=100, time=0),\n",
       "    Message('note_on', channel=0, note=50, velocity=0, time=120),\n",
       "    Message('note_on', channel=0, note=48, velocity=100, time=0),\n",
       "    Message('note_on', channel=0, note=48, velocity=0, time=120),\n",
       "    Message('note_on', channel=0, note=47, velocity=100, time=0),\n",
       "    Message('note_on', channel=0, note=47, velocity=0, time=120),\n",
       "    Message('note_on', channel=0, note=54, velocity=100, time=0),\n",
       "    Message('note_on', channel=0, note=54, velocity=0, time=120),\n",
       "    Message('note_on', channel=0, note=62, velocity=100, time=0),\n",
       "    Message('note_on', channel=0, note=62, velocity=0, time=120),\n",
       "    Message('note_on', channel=0, note=54, velocity=100, time=0),\n",
       "    Message('note_on', channel=0, note=54, velocity=0, time=120),\n",
       "    Message('note_on', channel=0, note=47, velocity=100, time=0),\n",
       "    Message('note_on', channel=0, note=47, velocity=0, time=120),\n",
       "    Message('note_on', channel=0, note=54, velocity=100, time=0),\n",
       "    Message('note_on', channel=0, note=54, velocity=0, time=120),\n",
       "    Message('note_on', channel=0, note=62, velocity=100, time=0),\n",
       "    Message('note_on', channel=0, note=62, velocity=0, time=120),\n",
       "    Message('note_on', channel=0, note=54, velocity=100, time=0),\n",
       "    Message('note_on', channel=0, note=54, velocity=0, time=120),\n",
       "    Message('note_on', channel=0, note=47, velocity=100, time=0),\n",
       "    Message('note_on', channel=0, note=47, velocity=0, time=120),\n",
       "    Message('note_on', channel=0, note=57, velocity=100, time=0),\n",
       "    Message('note_on', channel=0, note=57, velocity=0, time=120),\n",
       "    Message('note_on', channel=0, note=55, velocity=100, time=0),\n",
       "    Message('note_on', channel=0, note=55, velocity=0, time=120),\n",
       "    Message('note_on', channel=0, note=54, velocity=100, time=0),\n",
       "    Message('note_on', channel=0, note=54, velocity=0, time=120),\n",
       "    Message('note_on', channel=0, note=55, velocity=100, time=0),\n",
       "    Message('note_on', channel=0, note=55, velocity=0, time=120),\n",
       "    Message('note_on', channel=0, note=47, velocity=100, time=0),\n",
       "    Message('note_on', channel=0, note=47, velocity=0, time=120),\n",
       "    Message('note_on', channel=0, note=40, velocity=100, time=0),\n",
       "    Message('note_on', channel=0, note=40, velocity=0, time=120),\n",
       "    Message('note_on', channel=0, note=47, velocity=100, time=0),\n",
       "    Message('note_on', channel=0, note=47, velocity=0, time=120),\n",
       "    Message('note_on', channel=0, note=55, velocity=100, time=0),\n",
       "    Message('note_on', channel=0, note=55, velocity=0, time=120),\n",
       "    Message('note_on', channel=0, note=47, velocity=100, time=0),\n",
       "    Message('note_on', channel=0, note=47, velocity=0, time=120),\n",
       "    Message('note_on', channel=0, note=40, velocity=100, time=0),\n",
       "    Message('note_on', channel=0, note=40, velocity=0, time=120),\n",
       "    Message('note_on', channel=0, note=47, velocity=100, time=0),\n",
       "    Message('note_on', channel=0, note=47, velocity=0, time=120),\n",
       "    Message('note_on', channel=0, note=55, velocity=100, time=0),\n",
       "    Message('note_on', channel=0, note=55, velocity=0, time=120),\n",
       "    Message('note_on', channel=0, note=53, velocity=100, time=0),\n",
       "    Message('note_on', channel=0, note=53, velocity=0, time=120),\n",
       "    Message('note_on', channel=0, note=52, velocity=100, time=0),\n",
       "    Message('note_on', channel=0, note=52, velocity=0, time=120),\n",
       "    Message('note_on', channel=0, note=50, velocity=100, time=0),\n",
       "    Message('note_on', channel=0, note=50, velocity=0, time=120),\n",
       "    Message('note_on', channel=0, note=48, velocity=100, time=0),\n",
       "    Message('note_on', channel=0, note=48, velocity=0, time=120),\n",
       "    Message('note_on', channel=0, note=55, velocity=100, time=0),\n",
       "    Message('note_on', channel=0, note=55, velocity=0, time=120),\n",
       "    Message('note_on', channel=0, note=64, velocity=100, time=0),\n",
       "    Message('note_on', channel=0, note=64, velocity=0, time=120),\n",
       "    Message('note_on', channel=0, note=55, velocity=100, time=0),\n",
       "    Message('note_on', channel=0, note=55, velocity=0, time=120),\n",
       "    Message('note_on', channel=0, note=48, velocity=100, time=0),\n",
       "    Message('note_on', channel=0, note=48, velocity=0, time=120),\n",
       "    Message('note_on', channel=0, note=55, velocity=100, time=0),\n",
       "    Message('note_on', channel=0, note=55, velocity=0, time=120),\n",
       "    Message('note_on', channel=0, note=64, velocity=100, time=0),\n",
       "    Message('note_on', channel=0, note=64, velocity=0, time=120),\n",
       "    Message('note_on', channel=0, note=55, velocity=100, time=0),\n",
       "    Message('note_on', channel=0, note=55, velocity=0, time=120),\n",
       "    Message('note_on', channel=0, note=48, velocity=100, time=0),\n",
       "    Message('note_on', channel=0, note=48, velocity=0, time=120),\n",
       "    Message('note_on', channel=0, note=58, velocity=100, time=0),\n",
       "    Message('note_on', channel=0, note=58, velocity=0, time=120),\n",
       "    Message('note_on', channel=0, note=57, velocity=100, time=0),\n",
       "    Message('note_on', channel=0, note=57, velocity=0, time=120),\n",
       "    Message('note_on', channel=0, note=55, velocity=100, time=0),\n",
       "    Message('note_on', channel=0, note=55, velocity=0, time=120),\n",
       "    Message('note_on', channel=0, note=57, velocity=100, time=0),\n",
       "    Message('note_on', channel=0, note=57, velocity=0, time=120),\n",
       "    Message('note_on', channel=0, note=48, velocity=100, time=0),\n",
       "    Message('note_on', channel=0, note=48, velocity=0, time=120),\n",
       "    Message('note_on', channel=0, note=41, velocity=100, time=0),\n",
       "    Message('note_on', channel=0, note=41, velocity=0, time=120),\n",
       "    Message('note_on', channel=0, note=48, velocity=100, time=0),\n",
       "    Message('note_on', channel=0, note=48, velocity=0, time=120),\n",
       "    Message('note_on', channel=0, note=57, velocity=100, time=0),\n",
       "    Message('note_on', channel=0, note=57, velocity=0, time=120),\n",
       "    Message('note_on', channel=0, note=48, velocity=100, time=0),\n",
       "    Message('note_on', channel=0, note=48, velocity=0, time=120),\n",
       "    Message('note_on', channel=0, note=41, velocity=100, time=0),\n",
       "    Message('note_on', channel=0, note=41, velocity=0, time=120),\n",
       "    Message('note_on', channel=0, note=48, velocity=100, time=0),\n",
       "    Message('note_on', channel=0, note=48, velocity=0, time=120),\n",
       "    Message('note_on', channel=0, note=57, velocity=100, time=0),\n",
       "    Message('note_on', channel=0, note=57, velocity=0, time=120),\n",
       "    Message('note_on', channel=0, note=55, velocity=100, time=0),\n",
       "    Message('note_on', channel=0, note=55, velocity=0, time=120),\n",
       "    Message('note_on', channel=0, note=53, velocity=100, time=0),\n",
       "    Message('note_on', channel=0, note=53, velocity=0, time=120),\n",
       "    Message('note_on', channel=0, note=52, velocity=100, time=0),\n",
       "    Message('note_on', channel=0, note=52, velocity=0, time=120),\n",
       "    Message('note_on', channel=0, note=50, velocity=100, time=0),\n",
       "    Message('note_on', channel=0, note=50, velocity=0, time=120),\n",
       "    Message('note_on', channel=0, note=57, velocity=100, time=0),\n",
       "    Message('note_on', channel=0, note=57, velocity=0, time=120),\n",
       "    Message('note_on', channel=0, note=65, velocity=100, time=0),\n",
       "    Message('note_on', channel=0, note=65, velocity=0, time=120),\n",
       "    Message('note_on', channel=0, note=57, velocity=100, time=0),\n",
       "    Message('note_on', channel=0, note=57, velocity=0, time=120),\n",
       "    Message('note_on', channel=0, note=50, velocity=100, time=0),\n",
       "    Message('note_on', channel=0, note=50, velocity=0, time=120),\n",
       "    Message('note_on', channel=0, note=57, velocity=100, time=0),\n",
       "    Message('note_on', channel=0, note=57, velocity=0, time=120),\n",
       "    Message('note_on', channel=0, note=65, velocity=100, time=0),\n",
       "    Message('note_on', channel=0, note=65, velocity=0, time=120),\n",
       "    Message('note_on', channel=0, note=57, velocity=100, time=0),\n",
       "    Message('note_on', channel=0, note=57, velocity=0, time=120),\n",
       "    Message('note_on', channel=0, note=50, velocity=100, time=0),\n",
       "    Message('note_on', channel=0, note=50, velocity=0, time=120),\n",
       "    Message('note_on', channel=0, note=57, velocity=100, time=0),\n",
       "    Message('note_on', channel=0, note=57, velocity=0, time=120),\n",
       "    Message('note_on', channel=0, note=59, velocity=100, time=0),\n",
       "    Message('note_on', channel=0, note=59, velocity=0, time=120),\n",
       "    Message('note_on', channel=0, note=60, velocity=100, time=0),\n",
       "    Message('note_on', channel=0, note=60, velocity=0, time=120),\n",
       "    Message('note_on', channel=0, note=43, velocity=100, time=0),\n",
       "    Message('note_on', channel=0, note=43, velocity=0, time=120),\n",
       "    Message('note_on', channel=0, note=59, velocity=100, time=0),\n",
       "    Message('note_on', channel=0, note=59, velocity=0, time=120),\n",
       "    Message('note_on', channel=0, note=65, velocity=100, time=0),\n",
       "    Message('note_on', channel=0, note=65, velocity=0, time=120),\n",
       "    Message('note_on', channel=0, note=59, velocity=100, time=0),\n",
       "    Message('note_on', channel=0, note=59, velocity=0, time=120),\n",
       "    Message('note_on', channel=0, note=43, velocity=100, time=0),\n",
       "    Message('note_on', channel=0, note=43, velocity=0, time=120),\n",
       "    Message('note_on', channel=0, note=59, velocity=100, time=0),\n",
       "    Message('note_on', channel=0, note=59, velocity=0, time=120),\n",
       "    Message('note_on', channel=0, note=65, velocity=100, time=0),\n",
       "    Message('note_on', channel=0, note=65, velocity=0, time=120),\n",
       "    Message('note_on', channel=0, note=59, velocity=100, time=0),\n",
       "    Message('note_on', channel=0, note=59, velocity=0, time=120),\n",
       "    Message('note_on', channel=0, note=43, velocity=100, time=0),\n",
       "    Message('note_on', channel=0, note=43, velocity=0, time=120),\n",
       "    Message('note_on', channel=0, note=59, velocity=100, time=0),\n",
       "    Message('note_on', channel=0, note=59, velocity=0, time=120),\n",
       "    Message('note_on', channel=0, note=65, velocity=100, time=0),\n",
       "    Message('note_on', channel=0, note=65, velocity=0, time=120),\n",
       "    Message('note_on', channel=0, note=59, velocity=100, time=0),\n",
       "    Message('note_on', channel=0, note=59, velocity=0, time=120),\n",
       "    Message('note_on', channel=0, note=43, velocity=100, time=0),\n",
       "    Message('note_on', channel=0, note=43, velocity=0, time=120),\n",
       "    Message('note_on', channel=0, note=60, velocity=100, time=0),\n",
       "    Message('note_on', channel=0, note=60, velocity=0, time=120),\n",
       "    Message('note_on', channel=0, note=64, velocity=100, time=0),\n",
       "    Message('note_on', channel=0, note=64, velocity=0, time=120),\n",
       "    Message('note_on', channel=0, note=60, velocity=100, time=0),\n",
       "    Message('note_on', channel=0, note=60, velocity=0, time=120),\n",
       "    Message('note_on', channel=0, note=43, velocity=100, time=0),\n",
       "    Message('note_on', channel=0, note=43, velocity=0, time=120),\n",
       "    Message('note_on', channel=0, note=60, velocity=100, time=0),\n",
       "    Message('note_on', channel=0, note=60, velocity=0, time=120),\n",
       "    Message('note_on', channel=0, note=64, velocity=100, time=0),\n",
       "    Message('note_on', channel=0, note=64, velocity=0, time=120),\n",
       "    Message('note_on', channel=0, note=60, velocity=100, time=0),\n",
       "    Message('note_on', channel=0, note=60, velocity=0, time=120),\n",
       "    Message('note_on', channel=0, note=43, velocity=100, time=0),\n",
       "    Message('note_on', channel=0, note=43, velocity=0, time=120),\n",
       "    Message('note_on', channel=0, note=60, velocity=100, time=0),\n",
       "    Message('note_on', channel=0, note=60, velocity=0, time=120),\n",
       "    Message('note_on', channel=0, note=64, velocity=100, time=0),\n",
       "    Message('note_on', channel=0, note=64, velocity=0, time=120),\n",
       "    Message('note_on', channel=0, note=60, velocity=100, time=0),\n",
       "    Message('note_on', channel=0, note=60, velocity=0, time=120),\n",
       "    Message('note_on', channel=0, note=43, velocity=100, time=0),\n",
       "    Message('note_on', channel=0, note=43, velocity=0, time=120),\n",
       "    Message('note_on', channel=0, note=60, velocity=100, time=0),\n",
       "    Message('note_on', channel=0, note=60, velocity=0, time=120),\n",
       "    Message('note_on', channel=0, note=62, velocity=100, time=0),\n",
       "    Message('note_on', channel=0, note=62, velocity=0, time=120),\n",
       "    Message('note_on', channel=0, note=60, velocity=100, time=0),\n",
       "    Message('note_on', channel=0, note=60, velocity=0, time=120),\n",
       "    Message('note_on', channel=0, note=43, velocity=100, time=0),\n",
       "    Message('note_on', channel=0, note=43, velocity=0, time=120),\n",
       "    Message('note_on', channel=0, note=59, velocity=100, time=0),\n",
       "    Message('note_on', channel=0, note=59, velocity=0, time=120),\n",
       "    Message('note_on', channel=0, note=62, velocity=100, time=0),\n",
       "    Message('note_on', channel=0, note=62, velocity=0, time=120),\n",
       "    Message('note_on', channel=0, note=59, velocity=100, time=0),\n",
       "    Message('note_on', channel=0, note=59, velocity=0, time=120),\n",
       "    Message('note_on', channel=0, note=43, velocity=100, time=0),\n",
       "    Message('note_on', channel=0, note=43, velocity=0, time=120),\n",
       "    Message('note_on', channel=0, note=57, velocity=100, time=0),\n",
       "    Message('note_on', channel=0, note=57, velocity=0, time=120),\n",
       "    Message('note_on', channel=0, note=62, velocity=100, time=0),\n",
       "    Message('note_on', channel=0, note=62, velocity=0, time=120),\n",
       "    Message('note_on', channel=0, note=57, velocity=100, time=0),\n",
       "    Message('note_on', channel=0, note=57, velocity=0, time=120),\n",
       "    Message('note_on', channel=0, note=43, velocity=100, time=0),\n",
       "    Message('note_on', channel=0, note=43, velocity=0, time=120),\n",
       "    Message('note_on', channel=0, note=59, velocity=100, time=0),\n",
       "    Message('note_on', channel=0, note=59, velocity=0, time=120),\n",
       "    Message('note_on', channel=0, note=62, velocity=100, time=0),\n",
       "    Message('note_on', channel=0, note=62, velocity=0, time=120),\n",
       "    Message('note_on', channel=0, note=59, velocity=100, time=0),\n",
       "    Message('note_on', channel=0, note=59, velocity=0, time=120),\n",
       "    Message('note_on', channel=0, note=43, velocity=100, time=0),\n",
       "    Message('note_on', channel=0, note=43, velocity=0, time=120),\n",
       "    Message('note_on', channel=0, note=59, velocity=100, time=0),\n",
       "    Message('note_on', channel=0, note=59, velocity=0, time=120),\n",
       "    Message('note_on', channel=0, note=67, velocity=100, time=0),\n",
       "    Message('note_on', channel=0, note=67, velocity=0, time=120),\n",
       "    Message('note_on', channel=0, note=59, velocity=100, time=0),\n",
       "    Message('note_on', channel=0, note=59, velocity=0, time=120),\n",
       "    Message('note_on', channel=0, note=43, velocity=100, time=0),\n",
       "    Message('note_on', channel=0, note=43, velocity=0, time=120),\n",
       "    Message('note_on', channel=0, note=59, velocity=100, time=0),\n",
       "    Message('note_on', channel=0, note=59, velocity=0, time=120),\n",
       "    Message('note_on', channel=0, note=62, velocity=100, time=0),\n",
       "    Message('note_on', channel=0, note=62, velocity=0, time=120),\n",
       "    Message('note_on', channel=0, note=59, velocity=100, time=0),\n",
       "    Message('note_on', channel=0, note=59, velocity=0, time=120),\n",
       "    Message('note_on', channel=0, note=43, velocity=100, time=0),\n",
       "    Message('note_on', channel=0, note=43, velocity=0, time=120),\n",
       "    Message('note_on', channel=0, note=59, velocity=100, time=0),\n",
       "    Message('note_on', channel=0, note=59, velocity=0, time=120),\n",
       "    Message('note_on', channel=0, note=60, velocity=100, time=0),\n",
       "    Message('note_on', channel=0, note=60, velocity=0, time=120),\n",
       "    Message('note_on', channel=0, note=59, velocity=100, time=0),\n",
       "    Message('note_on', channel=0, note=59, velocity=0, time=120),\n",
       "    Message('note_on', channel=0, note=43, velocity=100, time=0),\n",
       "    Message('note_on', channel=0, note=43, velocity=0, time=120),\n",
       "    Message('note_on', channel=0, note=57, velocity=100, time=0),\n",
       "    Message('note_on', channel=0, note=57, velocity=0, time=120),\n",
       "    Message('note_on', channel=0, note=60, velocity=100, time=0),\n",
       "    Message('note_on', channel=0, note=60, velocity=0, time=120),\n",
       "    Message('note_on', channel=0, note=57, velocity=100, time=0),\n",
       "    Message('note_on', channel=0, note=57, velocity=0, time=120),\n",
       "    Message('note_on', channel=0, note=43, velocity=100, time=0),\n",
       "    Message('note_on', channel=0, note=43, velocity=0, time=120),\n",
       "    Message('note_on', channel=0, note=55, velocity=100, time=0),\n",
       "    Message('note_on', channel=0, note=55, velocity=0, time=120),\n",
       "    Message('note_on', channel=0, note=60, velocity=100, time=0),\n",
       "    Message('note_on', channel=0, note=60, velocity=0, time=120),\n",
       "    Message('note_on', channel=0, note=55, velocity=100, time=0),\n",
       "    Message('note_on', channel=0, note=55, velocity=0, time=120),\n",
       "    Message('note_on', channel=0, note=43, velocity=100, time=0),\n",
       "    Message('note_on', channel=0, note=43, velocity=0, time=120),\n",
       "    Message('note_on', channel=0, note=57, velocity=100, time=0),\n",
       "    Message('note_on', channel=0, note=57, velocity=0, time=120),\n",
       "    Message('note_on', channel=0, note=60, velocity=100, time=0),\n",
       "    Message('note_on', channel=0, note=60, velocity=0, time=120),\n",
       "    Message('note_on', channel=0, note=57, velocity=100, time=0),\n",
       "    Message('note_on', channel=0, note=57, velocity=0, time=120),\n",
       "    Message('note_on', channel=0, note=43, velocity=100, time=0),\n",
       "    Message('note_on', channel=0, note=43, velocity=0, time=120),\n",
       "    Message('note_on', channel=0, note=57, velocity=100, time=0),\n",
       "    Message('note_on', channel=0, note=57, velocity=0, time=120),\n",
       "    Message('note_on', channel=0, note=65, velocity=100, time=0),\n",
       "    Message('note_on', channel=0, note=65, velocity=0, time=120),\n",
       "    Message('note_on', channel=0, note=57, velocity=100, time=0),\n",
       "    Message('note_on', channel=0, note=57, velocity=0, time=120),\n",
       "    Message('note_on', channel=0, note=43, velocity=100, time=0),\n",
       "    Message('note_on', channel=0, note=43, velocity=0, time=120),\n",
       "    Message('note_on', channel=0, note=57, velocity=100, time=0),\n",
       "    Message('note_on', channel=0, note=57, velocity=0, time=120),\n",
       "    Message('note_on', channel=0, note=60, velocity=100, time=0),\n",
       "    Message('note_on', channel=0, note=60, velocity=0, time=120),\n",
       "    Message('note_on', channel=0, note=57, velocity=100, time=0),\n",
       "    Message('note_on', channel=0, note=57, velocity=0, time=120),\n",
       "    Message('note_on', channel=0, note=43, velocity=100, time=0),\n",
       "    Message('note_on', channel=0, note=43, velocity=0, time=120),\n",
       "    Message('note_on', channel=0, note=57, velocity=100, time=0),\n",
       "    Message('note_on', channel=0, note=57, velocity=0, time=120),\n",
       "    Message('note_on', channel=0, note=59, velocity=100, time=0),\n",
       "    Message('note_on', channel=0, note=59, velocity=0, time=120),\n",
       "    Message('note_on', channel=0, note=57, velocity=100, time=0),\n",
       "    Message('note_on', channel=0, note=57, velocity=0, time=120),\n",
       "    Message('note_on', channel=0, note=43, velocity=100, time=0),\n",
       "    Message('note_on', channel=0, note=43, velocity=0, time=120),\n",
       "    Message('note_on', channel=0, note=55, velocity=100, time=0),\n",
       "    Message('note_on', channel=0, note=55, velocity=0, time=120),\n",
       "    Message('note_on', channel=0, note=59, velocity=100, time=0),\n",
       "    Message('note_on', channel=0, note=59, velocity=0, time=120),\n",
       "    Message('note_on', channel=0, note=55, velocity=100, time=0),\n",
       "    Message('note_on', channel=0, note=55, velocity=0, time=120),\n",
       "    Message('note_on', channel=0, note=43, velocity=100, time=0),\n",
       "    Message('note_on', channel=0, note=43, velocity=0, time=120),\n",
       "    Message('note_on', channel=0, note=53, velocity=100, time=0),\n",
       "    Message('note_on', channel=0, note=53, velocity=0, time=120),\n",
       "    Message('note_on', channel=0, note=59, velocity=100, time=0),\n",
       "    Message('note_on', channel=0, note=59, velocity=0, time=120),\n",
       "    Message('note_on', channel=0, note=53, velocity=100, time=0),\n",
       "    Message('note_on', channel=0, note=53, velocity=0, time=120),\n",
       "    Message('note_on', channel=0, note=43, velocity=100, time=0),\n",
       "    Message('note_on', channel=0, note=43, velocity=0, time=120),\n",
       "    Message('note_on', channel=0, note=55, velocity=100, time=0),\n",
       "    Message('note_on', channel=0, note=55, velocity=0, time=120),\n",
       "    Message('note_on', channel=0, note=59, velocity=100, time=0),\n",
       "    Message('note_on', channel=0, note=59, velocity=0, time=120),\n",
       "    Message('note_on', channel=0, note=55, velocity=100, time=0),\n",
       "    Message('note_on', channel=0, note=55, velocity=0, time=120),\n",
       "    Message('note_on', channel=0, note=43, velocity=100, time=0),\n",
       "    Message('note_on', channel=0, note=43, velocity=0, time=120),\n",
       "    Message('note_on', channel=0, note=55, velocity=100, time=0),\n",
       "    Message('note_on', channel=0, note=55, velocity=0, time=120),\n",
       "    Message('note_on', channel=0, note=64, velocity=100, time=0),\n",
       "    Message('note_on', channel=0, note=64, velocity=0, time=120),\n",
       "    Message('note_on', channel=0, note=55, velocity=100, time=0),\n",
       "    Message('note_on', channel=0, note=55, velocity=0, time=120),\n",
       "    Message('note_on', channel=0, note=43, velocity=100, time=0),\n",
       "    Message('note_on', channel=0, note=43, velocity=0, time=120),\n",
       "    Message('note_on', channel=0, note=55, velocity=100, time=0),\n",
       "    Message('note_on', channel=0, note=55, velocity=0, time=120),\n",
       "    Message('note_on', channel=0, note=59, velocity=100, time=0),\n",
       "    Message('note_on', channel=0, note=59, velocity=0, time=120),\n",
       "    Message('note_on', channel=0, note=55, velocity=100, time=0),\n",
       "    Message('note_on', channel=0, note=55, velocity=0, time=120),\n",
       "    Message('note_on', channel=0, note=43, velocity=100, time=0),\n",
       "    Message('note_on', channel=0, note=43, velocity=0, time=120),\n",
       "    Message('note_on', channel=0, note=55, velocity=100, time=0),\n",
       "    Message('note_on', channel=0, note=55, velocity=0, time=120),\n",
       "    Message('note_on', channel=0, note=57, velocity=100, time=0),\n",
       "    Message('note_on', channel=0, note=57, velocity=0, time=120),\n",
       "    Message('note_on', channel=0, note=55, velocity=100, time=0),\n",
       "    Message('note_on', channel=0, note=55, velocity=0, time=120),\n",
       "    Message('note_on', channel=0, note=43, velocity=100, time=0),\n",
       "    Message('note_on', channel=0, note=43, velocity=0, time=120),\n",
       "    Message('note_on', channel=0, note=53, velocity=100, time=0),\n",
       "    Message('note_on', channel=0, note=53, velocity=0, time=120),\n",
       "    Message('note_on', channel=0, note=57, velocity=100, time=0),\n",
       "    Message('note_on', channel=0, note=57, velocity=0, time=120),\n",
       "    Message('note_on', channel=0, note=53, velocity=100, time=0),\n",
       "    Message('note_on', channel=0, note=53, velocity=0, time=120),\n",
       "    Message('note_on', channel=0, note=43, velocity=100, time=0),\n",
       "    Message('note_on', channel=0, note=43, velocity=0, time=120),\n",
       "    Message('note_on', channel=0, note=52, velocity=100, time=0),\n",
       "    Message('note_on', channel=0, note=52, velocity=0, time=120),\n",
       "    Message('note_on', channel=0, note=57, velocity=100, time=0),\n",
       "    Message('note_on', channel=0, note=57, velocity=0, time=120),\n",
       "    Message('note_on', channel=0, note=52, velocity=100, time=0),\n",
       "    Message('note_on', channel=0, note=52, velocity=0, time=120),\n",
       "    Message('note_on', channel=0, note=43, velocity=100, time=0),\n",
       "    Message('note_on', channel=0, note=43, velocity=0, time=120),\n",
       "    Message('note_on', channel=0, note=53, velocity=100, time=0),\n",
       "    Message('note_on', channel=0, note=53, velocity=0, time=120),\n",
       "    Message('note_on', channel=0, note=57, velocity=100, time=0),\n",
       "    Message('note_on', channel=0, note=57, velocity=0, time=120),\n",
       "    Message('note_on', channel=0, note=53, velocity=100, time=0),\n",
       "    Message('note_on', channel=0, note=53, velocity=0, time=120),\n",
       "    Message('note_on', channel=0, note=43, velocity=100, time=0),\n",
       "    Message('note_on', channel=0, note=43, velocity=0, time=120),\n",
       "    Message('note_on', channel=0, note=53, velocity=100, time=0),\n",
       "    Message('note_on', channel=0, note=53, velocity=0, time=120),\n",
       "    Message('note_on', channel=0, note=62, velocity=100, time=0),\n",
       "    Message('note_on', channel=0, note=62, velocity=0, time=120),\n",
       "    Message('note_on', channel=0, note=53, velocity=100, time=0),\n",
       "    Message('note_on', channel=0, note=53, velocity=0, time=120),\n",
       "    Message('note_on', channel=0, note=43, velocity=100, time=0),\n",
       "    Message('note_on', channel=0, note=43, velocity=0, time=120),\n",
       "    Message('note_on', channel=0, note=53, velocity=100, time=0),\n",
       "    Message('note_on', channel=0, note=53, velocity=0, time=120),\n",
       "    Message('note_on', channel=0, note=57, velocity=100, time=0),\n",
       "    Message('note_on', channel=0, note=57, velocity=0, time=120),\n",
       "    Message('note_on', channel=0, note=53, velocity=100, time=0),\n",
       "    Message('note_on', channel=0, note=53, velocity=0, time=120),\n",
       "    Message('note_on', channel=0, note=43, velocity=100, time=0),\n",
       "    Message('note_on', channel=0, note=43, velocity=0, time=120),\n",
       "    Message('note_on', channel=0, note=53, velocity=100, time=0),\n",
       "    Message('note_on', channel=0, note=53, velocity=0, time=120),\n",
       "    Message('note_on', channel=0, note=59, velocity=100, time=0),\n",
       "    Message('note_on', channel=0, note=59, velocity=0, time=120),\n",
       "    Message('note_on', channel=0, note=53, velocity=100, time=0),\n",
       "    Message('note_on', channel=0, note=53, velocity=0, time=120),\n",
       "    Message('note_on', channel=0, note=43, velocity=100, time=0),\n",
       "    Message('note_on', channel=0, note=43, velocity=0, time=120),\n",
       "    Message('note_on', channel=0, note=53, velocity=100, time=0),\n",
       "    Message('note_on', channel=0, note=53, velocity=0, time=120),\n",
       "    Message('note_on', channel=0, note=62, velocity=100, time=0),\n",
       "    Message('note_on', channel=0, note=62, velocity=0, time=120),\n",
       "    Message('note_on', channel=0, note=53, velocity=100, time=0),\n",
       "    Message('note_on', channel=0, note=53, velocity=0, time=120),\n",
       "    Message('note_on', channel=0, note=43, velocity=100, time=0),\n",
       "    Message('note_on', channel=0, note=43, velocity=0, time=120),\n",
       "    Message('note_on', channel=0, note=53, velocity=100, time=0),\n",
       "    Message('note_on', channel=0, note=53, velocity=0, time=120),\n",
       "    Message('note_on', channel=0, note=59, velocity=100, time=0),\n",
       "    Message('note_on', channel=0, note=59, velocity=0, time=120),\n",
       "    Message('note_on', channel=0, note=53, velocity=100, time=0),\n",
       "    Message('note_on', channel=0, note=53, velocity=0, time=120),\n",
       "    Message('note_on', channel=0, note=43, velocity=100, time=0),\n",
       "    Message('note_on', channel=0, note=43, velocity=0, time=120),\n",
       "    Message('note_on', channel=0, note=52, velocity=100, time=0),\n",
       "    Message('note_on', channel=0, note=52, velocity=0, time=120),\n",
       "    Message('note_on', channel=0, note=60, velocity=100, time=0),\n",
       "    Message('note_on', channel=0, note=60, velocity=0, time=120),\n",
       "    Message('note_on', channel=0, note=52, velocity=100, time=0),\n",
       "    Message('note_on', channel=0, note=52, velocity=0, time=120),\n",
       "    Message('note_on', channel=0, note=43, velocity=100, time=0),\n",
       "    Message('note_on', channel=0, note=43, velocity=0, time=120),\n",
       "    Message('note_on', channel=0, note=52, velocity=100, time=0),\n",
       "    Message('note_on', channel=0, note=52, velocity=0, time=120),\n",
       "    Message('note_on', channel=0, note=64, velocity=100, time=0),\n",
       "    Message('note_on', channel=0, note=64, velocity=0, time=120),\n",
       "    Message('note_on', channel=0, note=52, velocity=100, time=0),\n",
       "    Message('note_on', channel=0, note=52, velocity=0, time=120),\n",
       "    Message('note_on', channel=0, note=43, velocity=100, time=0),\n",
       "    Message('note_on', channel=0, note=43, velocity=0, time=120),\n",
       "    Message('note_on', channel=0, note=52, velocity=100, time=0),\n",
       "    Message('note_on', channel=0, note=52, velocity=0, time=120),\n",
       "    Message('note_on', channel=0, note=60, velocity=100, time=0),\n",
       "    Message('note_on', channel=0, note=60, velocity=0, time=120),\n",
       "    Message('note_on', channel=0, note=52, velocity=100, time=0),\n",
       "    Message('note_on', channel=0, note=52, velocity=0, time=120),\n",
       "    Message('note_on', channel=0, note=43, velocity=100, time=0),\n",
       "    Message('note_on', channel=0, note=43, velocity=0, time=120),\n",
       "    Message('note_on', channel=0, note=53, velocity=100, time=0),\n",
       "    Message('note_on', channel=0, note=53, velocity=0, time=120),\n",
       "    Message('note_on', channel=0, note=59, velocity=100, time=0),\n",
       "    Message('note_on', channel=0, note=59, velocity=0, time=120),\n",
       "    Message('note_on', channel=0, note=53, velocity=100, time=0),\n",
       "    Message('note_on', channel=0, note=53, velocity=0, time=120),\n",
       "    Message('note_on', channel=0, note=43, velocity=100, time=0),\n",
       "    Message('note_on', channel=0, note=43, velocity=0, time=120),\n",
       "    Message('note_on', channel=0, note=53, velocity=100, time=0),\n",
       "    Message('note_on', channel=0, note=53, velocity=0, time=120),\n",
       "    Message('note_on', channel=0, note=62, velocity=100, time=0),\n",
       "    Message('note_on', channel=0, note=62, velocity=0, time=120),\n",
       "    Message('note_on', channel=0, note=53, velocity=100, time=0),\n",
       "    Message('note_on', channel=0, note=53, velocity=0, time=120),\n",
       "    Message('note_on', channel=0, note=43, velocity=100, time=0),\n",
       "    Message('note_on', channel=0, note=43, velocity=0, time=120),\n",
       "    Message('note_on', channel=0, note=53, velocity=100, time=0),\n",
       "    Message('note_on', channel=0, note=53, velocity=0, time=120),\n",
       "    Message('note_on', channel=0, note=59, velocity=100, time=0),\n",
       "    Message('note_on', channel=0, note=59, velocity=0, time=120),\n",
       "    Message('note_on', channel=0, note=53, velocity=100, time=0),\n",
       "    Message('note_on', channel=0, note=53, velocity=0, time=120),\n",
       "    Message('note_on', channel=0, note=43, velocity=100, time=0),\n",
       "    Message('note_on', channel=0, note=43, velocity=0, time=120),\n",
       "    Message('note_on', channel=0, note=51, velocity=100, time=0),\n",
       "    Message('note_on', channel=0, note=51, velocity=0, time=120),\n",
       "    Message('note_on', channel=0, note=60, velocity=100, time=0),\n",
       "    Message('note_on', channel=0, note=60, velocity=0, time=120),\n",
       "    Message('note_on', channel=0, note=51, velocity=100, time=0),\n",
       "    Message('note_on', channel=0, note=51, velocity=0, time=120),\n",
       "    Message('note_on', channel=0, note=43, velocity=100, time=0),\n",
       "    Message('note_on', channel=0, note=43, velocity=0, time=120),\n",
       "    Message('note_on', channel=0, note=51, velocity=100, time=0),\n",
       "    Message('note_on', channel=0, note=51, velocity=0, time=120),\n",
       "    Message('note_on', channel=0, note=63, velocity=100, time=0),\n",
       "    Message('note_on', channel=0, note=63, velocity=0, time=120),\n",
       "    Message('note_on', channel=0, note=51, velocity=100, time=0),\n",
       "    Message('note_on', channel=0, note=51, velocity=0, time=120),\n",
       "    Message('note_on', channel=0, note=43, velocity=100, time=0),\n",
       "    Message('note_on', channel=0, note=43, velocity=0, time=120),\n",
       "    Message('note_on', channel=0, note=51, velocity=100, time=0),\n",
       "    Message('note_on', channel=0, note=51, velocity=0, time=120),\n",
       "    Message('note_on', channel=0, note=60, velocity=100, time=0),\n",
       "    Message('note_on', channel=0, note=60, velocity=0, time=120),\n",
       "    Message('note_on', channel=0, note=51, velocity=100, time=0),\n",
       "    Message('note_on', channel=0, note=51, velocity=0, time=120),\n",
       "    Message('note_on', channel=0, note=43, velocity=100, time=0),\n",
       "    Message('note_on', channel=0, note=43, velocity=0, time=120),\n",
       "    Message('note_on', channel=0, note=54, velocity=100, time=0),\n",
       "    Message('note_on', channel=0, note=54, velocity=0, time=120),\n",
       "    Message('note_on', channel=0, note=60, velocity=100, time=0),\n",
       "    Message('note_on', channel=0, note=60, velocity=0, time=120),\n",
       "    Message('note_on', channel=0, note=54, velocity=100, time=0),\n",
       "    Message('note_on', channel=0, note=54, velocity=0, time=120),\n",
       "    Message('note_on', channel=0, note=43, velocity=100, time=0),\n",
       "    Message('note_on', channel=0, note=43, velocity=0, time=120),\n",
       "    Message('note_on', channel=0, note=50, velocity=100, time=0),\n",
       "    Message('note_on', channel=0, note=50, velocity=0, time=120),\n",
       "    Message('note_on', channel=0, note=60, velocity=100, time=0),\n",
       "    Message('note_on', channel=0, note=60, velocity=0, time=120),\n",
       "    Message('note_on', channel=0, note=50, velocity=100, time=0),\n",
       "    Message('note_on', channel=0, note=50, velocity=0, time=120),\n",
       "    Message('note_on', channel=0, note=43, velocity=100, time=0),\n",
       "    Message('note_on', channel=0, note=43, velocity=0, time=120),\n",
       "    Message('note_on', channel=0, note=52, velocity=100, time=0),\n",
       "    Message('note_on', channel=0, note=52, velocity=0, time=120),\n",
       "    Message('note_on', channel=0, note=60, velocity=100, time=0),\n",
       "    Message('note_on', channel=0, note=60, velocity=0, time=120),\n",
       "    Message('note_on', channel=0, note=52, velocity=100, time=0),\n",
       "    Message('note_on', channel=0, note=52, velocity=0, time=120),\n",
       "    Message('note_on', channel=0, note=43, velocity=100, time=0),\n",
       "    Message('note_on', channel=0, note=43, velocity=0, time=120),\n",
       "    Message('note_on', channel=0, note=54, velocity=100, time=0),\n",
       "    Message('note_on', channel=0, note=54, velocity=0, time=120),\n",
       "    Message('note_on', channel=0, note=60, velocity=100, time=0),\n",
       "    Message('note_on', channel=0, note=60, velocity=0, time=120),\n",
       "    Message('note_on', channel=0, note=54, velocity=100, time=0),\n",
       "    Message('note_on', channel=0, note=54, velocity=0, time=120),\n",
       "    Message('note_on', channel=0, note=43, velocity=100, time=0),\n",
       "    Message('note_on', channel=0, note=43, velocity=0, time=120),\n",
       "    Message('note_on', channel=0, note=52, velocity=100, time=0),\n",
       "    Message('note_on', channel=0, note=52, velocity=0, time=120),\n",
       "    Message('note_on', channel=0, note=60, velocity=100, time=0),\n",
       "    Message('note_on', channel=0, note=60, velocity=0, time=120),\n",
       "    Message('note_on', channel=0, note=52, velocity=100, time=0),\n",
       "    Message('note_on', channel=0, note=52, velocity=0, time=120),\n",
       "    Message('note_on', channel=0, note=43, velocity=100, time=0),\n",
       "    Message('note_on', channel=0, note=43, velocity=0, time=120),\n",
       "    Message('note_on', channel=0, note=54, velocity=100, time=0),\n",
       "    Message('note_on', channel=0, note=54, velocity=0, time=120),\n",
       "    Message('note_on', channel=0, note=60, velocity=100, time=0),\n",
       "    Message('note_on', channel=0, note=60, velocity=0, time=120),\n",
       "    Message('note_on', channel=0, note=54, velocity=100, time=0),\n",
       "    Message('note_on', channel=0, note=54, velocity=0, time=120),\n",
       "    Message('note_on', channel=0, note=43, velocity=100, time=0),\n",
       "    Message('note_on', channel=0, note=43, velocity=0, time=120),\n",
       "    Message('note_on', channel=0, note=55, velocity=100, time=0),\n",
       "    Message('note_on', channel=0, note=55, velocity=0, time=120),\n",
       "    Message('note_on', channel=0, note=59, velocity=100, time=0),\n",
       "    Message('note_on', channel=0, note=59, velocity=0, time=120),\n",
       "    Message('note_on', channel=0, note=57, velocity=100, time=0),\n",
       "    Message('note_on', channel=0, note=57, velocity=0, time=120),\n",
       "    Message('note_on', channel=0, note=55, velocity=100, time=0),\n",
       "    Message('note_on', channel=0, note=55, velocity=0, time=120),\n",
       "    Message('note_on', channel=0, note=53, velocity=100, time=0),\n",
       "    Message('note_on', channel=0, note=53, velocity=0, time=120),\n",
       "    Message('note_on', channel=0, note=52, velocity=100, time=0),\n",
       "    Message('note_on', channel=0, note=52, velocity=0, time=120),\n",
       "    Message('note_on', channel=0, note=50, velocity=100, time=0),\n",
       "    Message('note_on', channel=0, note=50, velocity=0, time=120),\n",
       "    Message('note_on', channel=0, note=55, velocity=100, time=0),\n",
       "    Message('note_on', channel=0, note=55, velocity=0, time=120),\n",
       "    Message('note_on', channel=0, note=52, velocity=100, time=0),\n",
       "    Message('note_on', channel=0, note=52, velocity=0, time=120),\n",
       "    Message('note_on', channel=0, note=55, velocity=100, time=0),\n",
       "    Message('note_on', channel=0, note=55, velocity=0, time=120),\n",
       "    Message('note_on', channel=0, note=50, velocity=100, time=0),\n",
       "    Message('note_on', channel=0, note=50, velocity=0, time=120),\n",
       "    Message('note_on', channel=0, note=55, velocity=100, time=0),\n",
       "    Message('note_on', channel=0, note=55, velocity=0, time=120),\n",
       "    Message('note_on', channel=0, note=49, velocity=100, time=0),\n",
       "    Message('note_on', channel=0, note=49, velocity=0, time=120),\n",
       "    Message('note_on', channel=0, note=55, velocity=100, time=0),\n",
       "    Message('note_on', channel=0, note=55, velocity=0, time=120),\n",
       "    Message('note_on', channel=0, note=57, velocity=100, time=0),\n",
       "    Message('note_on', channel=0, note=57, velocity=0, time=120),\n",
       "    Message('note_on', channel=0, note=55, velocity=100, time=0),\n",
       "    Message('note_on', channel=0, note=55, velocity=0, time=120),\n",
       "    Message('note_on', channel=0, note=49, velocity=100, time=0),\n",
       "    Message('note_on', channel=0, note=49, velocity=0, time=120),\n",
       "    Message('note_on', channel=0, note=55, velocity=100, time=0),\n",
       "    Message('note_on', channel=0, note=55, velocity=0, time=120),\n",
       "    Message('note_on', channel=0, note=57, velocity=100, time=0),\n",
       "    Message('note_on', channel=0, note=57, velocity=0, time=120),\n",
       "    Message('note_on', channel=0, note=55, velocity=100, time=0),\n",
       "    Message('note_on', channel=0, note=55, velocity=0, time=120),\n",
       "    Message('note_on', channel=0, note=49, velocity=100, time=0),\n",
       "    Message('note_on', channel=0, note=49, velocity=0, time=120),\n",
       "    Message('note_on', channel=0, note=55, velocity=100, time=0),\n",
       "    Message('note_on', channel=0, note=55, velocity=0, time=120),\n",
       "    Message('note_on', channel=0, note=57, velocity=100, time=0),\n",
       "    Message('note_on', channel=0, note=57, velocity=0, time=120),\n",
       "    Message('note_on', channel=0, note=53, velocity=100, time=0),\n",
       "    Message('note_on', channel=0, note=53, velocity=0, time=120),\n",
       "    Message('note_on', channel=0, note=50, velocity=100, time=0),\n",
       "    Message('note_on', channel=0, note=50, velocity=0, time=120),\n",
       "    Message('note_on', channel=0, note=57, velocity=100, time=0),\n",
       "    Message('note_on', channel=0, note=57, velocity=0, time=120),\n",
       "    Message('note_on', channel=0, note=55, velocity=100, time=0),\n",
       "    Message('note_on', channel=0, note=55, velocity=0, time=120),\n",
       "    Message('note_on', channel=0, note=53, velocity=100, time=0),\n",
       "    Message('note_on', channel=0, note=53, velocity=0, time=120),\n",
       "    Message('note_on', channel=0, note=52, velocity=100, time=0),\n",
       "    Message('note_on', channel=0, note=52, velocity=0, time=120),\n",
       "    Message('note_on', channel=0, note=50, velocity=100, time=0),\n",
       "    Message('note_on', channel=0, note=50, velocity=0, time=120),\n",
       "    Message('note_on', channel=0, note=48, velocity=100, time=0),\n",
       "    Message('note_on', channel=0, note=48, velocity=0, time=120),\n",
       "    Message('note_on', channel=0, note=53, velocity=100, time=0),\n",
       "    Message('note_on', channel=0, note=53, velocity=0, time=120),\n",
       "    Message('note_on', channel=0, note=50, velocity=100, time=0),\n",
       "    Message('note_on', channel=0, note=50, velocity=0, time=120),\n",
       "    Message('note_on', channel=0, note=53, velocity=100, time=0),\n",
       "    Message('note_on', channel=0, note=53, velocity=0, time=120),\n",
       "    Message('note_on', channel=0, note=48, velocity=100, time=0),\n",
       "    Message('note_on', channel=0, note=48, velocity=0, time=120),\n",
       "    Message('note_on', channel=0, note=53, velocity=100, time=0),\n",
       "    Message('note_on', channel=0, note=53, velocity=0, time=120),\n",
       "    Message('note_on', channel=0, note=47, velocity=100, time=0),\n",
       "    Message('note_on', channel=0, note=47, velocity=0, time=120),\n",
       "    Message('note_on', channel=0, note=53, velocity=100, time=0),\n",
       "    Message('note_on', channel=0, note=53, velocity=0, time=120),\n",
       "    Message('note_on', channel=0, note=55, velocity=100, time=0),\n",
       "    Message('note_on', channel=0, note=55, velocity=0, time=120),\n",
       "    Message('note_on', channel=0, note=53, velocity=100, time=0),\n",
       "    Message('note_on', channel=0, note=53, velocity=0, time=120),\n",
       "    Message('note_on', channel=0, note=47, velocity=100, time=0),\n",
       "    Message('note_on', channel=0, note=47, velocity=0, time=120),\n",
       "    Message('note_on', channel=0, note=53, velocity=100, time=0),\n",
       "    Message('note_on', channel=0, note=53, velocity=0, time=120),\n",
       "    Message('note_on', channel=0, note=55, velocity=100, time=0),\n",
       "    Message('note_on', channel=0, note=55, velocity=0, time=120),\n",
       "    Message('note_on', channel=0, note=53, velocity=100, time=0),\n",
       "    Message('note_on', channel=0, note=53, velocity=0, time=120),\n",
       "    Message('note_on', channel=0, note=47, velocity=100, time=0),\n",
       "    Message('note_on', channel=0, note=47, velocity=0, time=120),\n",
       "    Message('note_on', channel=0, note=53, velocity=100, time=0),\n",
       "    Message('note_on', channel=0, note=53, velocity=0, time=120),\n",
       "    Message('note_on', channel=0, note=55, velocity=100, time=0),\n",
       "    Message('note_on', channel=0, note=55, velocity=0, time=120),\n",
       "    Message('note_on', channel=0, note=52, velocity=100, time=0),\n",
       "    Message('note_on', channel=0, note=52, velocity=0, time=120),\n",
       "    Message('note_on', channel=0, note=48, velocity=100, time=0),\n",
       "    Message('note_on', channel=0, note=48, velocity=0, time=120),\n",
       "    Message('note_on', channel=0, note=55, velocity=100, time=0),\n",
       "    Message('note_on', channel=0, note=55, velocity=0, time=120),\n",
       "    Message('note_on', channel=0, note=53, velocity=100, time=0),\n",
       "    Message('note_on', channel=0, note=53, velocity=0, time=120),\n",
       "    Message('note_on', channel=0, note=52, velocity=100, time=0),\n",
       "    Message('note_on', channel=0, note=52, velocity=0, time=120),\n",
       "    Message('note_on', channel=0, note=50, velocity=100, time=0),\n",
       "    Message('note_on', channel=0, note=50, velocity=0, time=120),\n",
       "    Message('note_on', channel=0, note=48, velocity=100, time=0),\n",
       "    Message('note_on', channel=0, note=48, velocity=0, time=120),\n",
       "    Message('note_on', channel=0, note=47, velocity=100, time=0),\n",
       "    Message('note_on', channel=0, note=47, velocity=0, time=120),\n",
       "    Message('note_on', channel=0, note=48, velocity=100, time=0),\n",
       "    Message('note_on', channel=0, note=48, velocity=0, time=120),\n",
       "    Message('note_on', channel=0, note=45, velocity=100, time=0),\n",
       "    Message('note_on', channel=0, note=45, velocity=0, time=120),\n",
       "    Message('note_on', channel=0, note=48, velocity=100, time=0),\n",
       "    Message('note_on', channel=0, note=48, velocity=0, time=120),\n",
       "    Message('note_on', channel=0, note=43, velocity=100, time=0),\n",
       "    Message('note_on', channel=0, note=43, velocity=0, time=120),\n",
       "    Message('note_on', channel=0, note=48, velocity=100, time=0),\n",
       "    Message('note_on', channel=0, note=48, velocity=0, time=120),\n",
       "    Message('note_on', channel=0, note=42, velocity=100, time=0),\n",
       "    Message('note_on', channel=0, note=42, velocity=0, time=120),\n",
       "    Message('note_on', channel=0, note=48, velocity=100, time=0),\n",
       "    Message('note_on', channel=0, note=48, velocity=0, time=120),\n",
       "    Message('note_on', channel=0, note=50, velocity=100, time=0),\n",
       "    Message('note_on', channel=0, note=50, velocity=0, time=120),\n",
       "    Message('note_on', channel=0, note=48, velocity=100, time=0),\n",
       "    Message('note_on', channel=0, note=48, velocity=0, time=120),\n",
       "    Message('note_on', channel=0, note=42, velocity=100, time=0),\n",
       "    Message('note_on', channel=0, note=42, velocity=0, time=120),\n",
       "    Message('note_on', channel=0, note=48, velocity=100, time=0),\n",
       "    Message('note_on', channel=0, note=48, velocity=0, time=120),\n",
       "    Message('note_on', channel=0, note=50, velocity=100, time=0),\n",
       "    Message('note_on', channel=0, note=50, velocity=0, time=120),\n",
       "    Message('note_on', channel=0, note=48, velocity=100, time=0),\n",
       "    Message('note_on', channel=0, note=48, velocity=0, time=120),\n",
       "    Message('note_on', channel=0, note=42, velocity=100, time=0),\n",
       "    Message('note_on', channel=0, note=42, velocity=0, time=120),\n",
       "    Message('note_on', channel=0, note=48, velocity=100, time=0),\n",
       "    Message('note_on', channel=0, note=48, velocity=0, time=120),\n",
       "    Message('note_on', channel=0, note=50, velocity=100, time=0),\n",
       "    Message('note_on', channel=0, note=50, velocity=0, time=120),\n",
       "    Message('note_on', channel=0, note=47, velocity=100, time=0),\n",
       "    Message('note_on', channel=0, note=47, velocity=0, time=120),\n",
       "    Message('note_on', channel=0, note=43, velocity=100, time=0),\n",
       "    Message('note_on', channel=0, note=43, velocity=0, time=120),\n",
       "    Message('note_on', channel=0, note=47, velocity=100, time=0),\n",
       "    Message('note_on', channel=0, note=47, velocity=0, time=120),\n",
       "    Message('note_on', channel=0, note=50, velocity=100, time=0),\n",
       "    Message('note_on', channel=0, note=50, velocity=0, time=120),\n",
       "    Message('note_on', channel=0, note=47, velocity=100, time=0),\n",
       "    Message('note_on', channel=0, note=47, velocity=0, time=120),\n",
       "    Message('note_on', channel=0, note=43, velocity=100, time=0),\n",
       "    Message('note_on', channel=0, note=43, velocity=0, time=120),\n",
       "    Message('note_on', channel=0, note=47, velocity=100, time=0),\n",
       "    Message('note_on', channel=0, note=47, velocity=0, time=120),\n",
       "    Message('note_on', channel=0, note=50, velocity=100, time=0),\n",
       "    Message('note_on', channel=0, note=50, velocity=0, time=120),\n",
       "    Message('note_on', channel=0, note=47, velocity=100, time=0),\n",
       "    Message('note_on', channel=0, note=47, velocity=0, time=120),\n",
       "    Message('note_on', channel=0, note=41, velocity=100, time=0),\n",
       "    Message('note_on', channel=0, note=41, velocity=0, time=120),\n",
       "    Message('note_on', channel=0, note=47, velocity=100, time=0),\n",
       "    Message('note_on', channel=0, note=47, velocity=0, time=120),\n",
       "    Message('note_on', channel=0, note=50, velocity=100, time=0),\n",
       "    Message('note_on', channel=0, note=50, velocity=0, time=120),\n",
       "    Message('note_on', channel=0, note=46, velocity=100, time=0),\n",
       "    Message('note_on', channel=0, note=46, velocity=0, time=120),\n",
       "    Message('note_on', channel=0, note=40, velocity=100, time=0),\n",
       "    Message('note_on', channel=0, note=40, velocity=0, time=120),\n",
       "    Message('note_on', channel=0, note=46, velocity=100, time=0),\n",
       "    Message('note_on', channel=0, note=46, velocity=0, time=120),\n",
       "    Message('note_on', channel=0, note=48, velocity=100, time=0),\n",
       "    Message('note_on', channel=0, note=48, velocity=0, time=120),\n",
       "    Message('note_on', channel=0, note=46, velocity=100, time=0),\n",
       "    Message('note_on', channel=0, note=46, velocity=0, time=120),\n",
       "    Message('note_on', channel=0, note=40, velocity=100, time=0),\n",
       "    Message('note_on', channel=0, note=40, velocity=0, time=120),\n",
       "    Message('note_on', channel=0, note=46, velocity=100, time=0),\n",
       "    Message('note_on', channel=0, note=46, velocity=0, time=120),\n",
       "    Message('note_on', channel=0, note=48, velocity=100, time=0),\n",
       "    Message('note_on', channel=0, note=48, velocity=0, time=120),\n",
       "    Message('note_on', channel=0, note=46, velocity=100, time=0),\n",
       "    Message('note_on', channel=0, note=46, velocity=0, time=120),\n",
       "    Message('note_on', channel=0, note=40, velocity=100, time=0),\n",
       "    Message('note_on', channel=0, note=40, velocity=0, time=120),\n",
       "    Message('note_on', channel=0, note=46, velocity=100, time=0),\n",
       "    Message('note_on', channel=0, note=46, velocity=0, time=120),\n",
       "    Message('note_on', channel=0, note=48, velocity=100, time=0),\n",
       "    Message('note_on', channel=0, note=48, velocity=0, time=120),\n",
       "    Message('note_on', channel=0, note=45, velocity=100, time=0),\n",
       "    Message('note_on', channel=0, note=45, velocity=0, time=120),\n",
       "    Message('note_on', channel=0, note=41, velocity=100, time=0),\n",
       "    Message('note_on', channel=0, note=41, velocity=0, time=120),\n",
       "    Message('note_on', channel=0, note=45, velocity=100, time=0),\n",
       "    Message('note_on', channel=0, note=45, velocity=0, time=120),\n",
       "    Message('note_on', channel=0, note=48, velocity=100, time=0),\n",
       "    Message('note_on', channel=0, note=48, velocity=0, time=120),\n",
       "    Message('note_on', channel=0, note=45, velocity=100, time=0),\n",
       "    Message('note_on', channel=0, note=45, velocity=0, time=120),\n",
       "    Message('note_on', channel=0, note=41, velocity=100, time=0),\n",
       "    Message('note_on', channel=0, note=41, velocity=0, time=120),\n",
       "    Message('note_on', channel=0, note=45, velocity=100, time=0),\n",
       "    Message('note_on', channel=0, note=45, velocity=0, time=120),\n",
       "    Message('note_on', channel=0, note=48, velocity=100, time=0),\n",
       "    Message('note_on', channel=0, note=48, velocity=0, time=120),\n",
       "    Message('note_on', channel=0, note=45, velocity=100, time=0),\n",
       "    Message('note_on', channel=0, note=45, velocity=0, time=120),\n",
       "    Message('note_on', channel=0, note=40, velocity=100, time=0),\n",
       "    Message('note_on', channel=0, note=40, velocity=0, time=120),\n",
       "    Message('note_on', channel=0, note=45, velocity=100, time=0),\n",
       "    Message('note_on', channel=0, note=45, velocity=0, time=120),\n",
       "    Message('note_on', channel=0, note=48, velocity=100, time=0),\n",
       "    Message('note_on', channel=0, note=48, velocity=0, time=120),\n",
       "    Message('note_on', channel=0, note=47, velocity=100, time=0),\n",
       "    Message('note_on', channel=0, note=47, velocity=0, time=120),\n",
       "    Message('note_on', channel=0, note=38, velocity=100, time=0),\n",
       "    Message('note_on', channel=0, note=38, velocity=0, time=120),\n",
       "    Message('note_on', channel=0, note=47, velocity=100, time=0),\n",
       "    Message('note_on', channel=0, note=47, velocity=0, time=120),\n",
       "    Message('note_on', channel=0, note=53, velocity=100, time=0),\n",
       "    Message('note_on', channel=0, note=53, velocity=0, time=120),\n",
       "    Message('note_on', channel=0, note=47, velocity=100, time=0),\n",
       "    Message('note_on', channel=0, note=47, velocity=0, time=120),\n",
       "    Message('note_on', channel=0, note=38, velocity=100, time=0),\n",
       "    Message('note_on', channel=0, note=38, velocity=0, time=120),\n",
       "    Message('note_on', channel=0, note=47, velocity=100, time=0),\n",
       "    Message('note_on', channel=0, note=47, velocity=0, time=120),\n",
       "    Message('note_on', channel=0, note=53, velocity=100, time=0),\n",
       "    Message('note_on', channel=0, note=53, velocity=0, time=120),\n",
       "    Message('note_on', channel=0, note=47, velocity=100, time=0),\n",
       "    Message('note_on', channel=0, note=47, velocity=0, time=120),\n",
       "    Message('note_on', channel=0, note=38, velocity=100, time=0),\n",
       "    Message('note_on', channel=0, note=38, velocity=0, time=120),\n",
       "    Message('note_on', channel=0, note=47, velocity=100, time=0),\n",
       "    Message('note_on', channel=0, note=47, velocity=0, time=120),\n",
       "    Message('note_on', channel=0, note=53, velocity=100, time=0),\n",
       "    Message('note_on', channel=0, note=53, velocity=0, time=120),\n",
       "    Message('note_on', channel=0, note=52, velocity=100, time=0),\n",
       "    Message('note_on', channel=0, note=52, velocity=0, time=120),\n",
       "    Message('note_on', channel=0, note=36, velocity=100, time=0),\n",
       "    Message('note_on', channel=0, note=36, velocity=0, time=120),\n",
       "    Message('note_on', channel=0, note=38, velocity=100, time=0),\n",
       "    Message('note_on', channel=0, note=38, velocity=0, time=120),\n",
       "    Message('note_on', channel=0, note=40, velocity=100, time=0),\n",
       "    Message('note_on', channel=0, note=40, velocity=0, time=120),\n",
       "    Message('note_on', channel=0, note=41, velocity=100, time=0),\n",
       "    Message('note_on', channel=0, note=41, velocity=0, time=120),\n",
       "    Message('note_on', channel=0, note=43, velocity=100, time=0),\n",
       "    Message('note_on', channel=0, note=43, velocity=0, time=120),\n",
       "    Message('note_on', channel=0, note=45, velocity=100, time=0),\n",
       "    Message('note_on', channel=0, note=45, velocity=0, time=120),\n",
       "    Message('note_on', channel=0, note=47, velocity=100, time=0),\n",
       "    Message('note_on', channel=0, note=47, velocity=0, time=120),\n",
       "    Message('note_on', channel=0, note=48, velocity=100, time=0),\n",
       "    Message('note_on', channel=0, note=48, velocity=0, time=120),\n",
       "    Message('note_on', channel=0, note=50, velocity=100, time=0),\n",
       "    Message('note_on', channel=0, note=50, velocity=0, time=120),\n",
       "    Message('note_on', channel=0, note=52, velocity=100, time=0),\n",
       "    Message('note_on', channel=0, note=52, velocity=0, time=120),\n",
       "    Message('note_on', channel=0, note=53, velocity=100, time=0),\n",
       "    Message('note_on', channel=0, note=53, velocity=0, time=120),\n",
       "    Message('note_on', channel=0, note=55, velocity=100, time=0),\n",
       "    Message('note_on', channel=0, note=55, velocity=0, time=120),\n",
       "    Message('note_on', channel=0, note=52, velocity=100, time=0),\n",
       "    Message('note_on', channel=0, note=52, velocity=0, time=120),\n",
       "    Message('note_on', channel=0, note=48, velocity=100, time=0),\n",
       "    Message('note_on', channel=0, note=48, velocity=0, time=120),\n",
       "    Message('note_on', channel=0, note=50, velocity=100, time=0),\n",
       "    Message('note_on', channel=0, note=50, velocity=0, time=120),\n",
       "    Message('note_on', channel=0, note=52, velocity=100, time=0),\n",
       "    Message('note_on', channel=0, note=52, velocity=0, time=120),\n",
       "    Message('note_on', channel=0, note=53, velocity=100, time=0),\n",
       "    Message('note_on', channel=0, note=53, velocity=0, time=120),\n",
       "    Message('note_on', channel=0, note=55, velocity=100, time=0),\n",
       "    Message('note_on', channel=0, note=55, velocity=0, time=120),\n",
       "    Message('note_on', channel=0, note=57, velocity=100, time=0),\n",
       "    Message('note_on', channel=0, note=57, velocity=0, time=120),\n",
       "    Message('note_on', channel=0, note=58, velocity=100, time=0),\n",
       "    Message('note_on', channel=0, note=58, velocity=0, time=120),\n",
       "    Message('note_on', channel=0, note=57, velocity=100, time=0),\n",
       "    Message('note_on', channel=0, note=57, velocity=0, time=120),\n",
       "    Message('note_on', channel=0, note=58, velocity=100, time=0),\n",
       "    Message('note_on', channel=0, note=58, velocity=0, time=120),\n",
       "    Message('note_on', channel=0, note=55, velocity=100, time=0),\n",
       "    Message('note_on', channel=0, note=55, velocity=0, time=120),\n",
       "    Message('note_on', channel=0, note=57, velocity=100, time=0),\n",
       "    Message('note_on', channel=0, note=57, velocity=0, time=120),\n",
       "    Message('note_on', channel=0, note=53, velocity=100, time=0),\n",
       "    Message('note_on', channel=0, note=53, velocity=0, time=120),\n",
       "    Message('note_on', channel=0, note=50, velocity=100, time=0),\n",
       "    Message('note_on', channel=0, note=50, velocity=0, time=120),\n",
       "    Message('note_on', channel=0, note=52, velocity=100, time=0),\n",
       "    Message('note_on', channel=0, note=52, velocity=0, time=120),\n",
       "    Message('note_on', channel=0, note=53, velocity=100, time=0),\n",
       "    Message('note_on', channel=0, note=53, velocity=0, time=120),\n",
       "    Message('note_on', channel=0, note=55, velocity=100, time=0),\n",
       "    Message('note_on', channel=0, note=55, velocity=0, time=120),\n",
       "    Message('note_on', channel=0, note=57, velocity=100, time=0),\n",
       "    Message('note_on', channel=0, note=57, velocity=0, time=120),\n",
       "    Message('note_on', channel=0, note=59, velocity=100, time=0),\n",
       "    Message('note_on', channel=0, note=59, velocity=0, time=120),\n",
       "    Message('note_on', channel=0, note=60, velocity=100, time=0),\n",
       "    Message('note_on', channel=0, note=60, velocity=0, time=120),\n",
       "    Message('note_on', channel=0, note=59, velocity=100, time=0),\n",
       "    Message('note_on', channel=0, note=59, velocity=0, time=120),\n",
       "    Message('note_on', channel=0, note=60, velocity=100, time=0),\n",
       "    Message('note_on', channel=0, note=60, velocity=0, time=120),\n",
       "    Message('note_on', channel=0, note=57, velocity=100, time=0),\n",
       "    Message('note_on', channel=0, note=57, velocity=0, time=120),\n",
       "    Message('note_on', channel=0, note=59, velocity=100, time=0),\n",
       "    Message('note_on', channel=0, note=59, velocity=0, time=120),\n",
       "    Message('note_on', channel=0, note=55, velocity=100, time=0),\n",
       "    Message('note_on', channel=0, note=55, velocity=0, time=120),\n",
       "    Message('note_on', channel=0, note=52, velocity=100, time=0),\n",
       "    Message('note_on', channel=0, note=52, velocity=0, time=120),\n",
       "    Message('note_on', channel=0, note=53, velocity=100, time=0),\n",
       "    Message('note_on', channel=0, note=53, velocity=0, time=120),\n",
       "    Message('note_on', channel=0, note=55, velocity=100, time=0),\n",
       "    Message('note_on', channel=0, note=55, velocity=0, time=120),\n",
       "    Message('note_on', channel=0, note=57, velocity=100, time=0),\n",
       "    Message('note_on', channel=0, note=57, velocity=0, time=120),\n",
       "    Message('note_on', channel=0, note=59, velocity=100, time=0),\n",
       "    Message('note_on', channel=0, note=59, velocity=0, time=120),\n",
       "    Message('note_on', channel=0, note=60, velocity=100, time=0),\n",
       "    Message('note_on', channel=0, note=60, velocity=0, time=120),\n",
       "    Message('note_on', channel=0, note=62, velocity=100, time=0),\n",
       "    Message('note_on', channel=0, note=62, velocity=0, time=120),\n",
       "    Message('note_on', channel=0, note=60, velocity=100, time=0),\n",
       "    Message('note_on', channel=0, note=60, velocity=0, time=120),\n",
       "    Message('note_on', channel=0, note=62, velocity=100, time=0),\n",
       "    Message('note_on', channel=0, note=62, velocity=0, time=120),\n",
       "    Message('note_on', channel=0, note=59, velocity=100, time=0),\n",
       "    Message('note_on', channel=0, note=59, velocity=0, time=120),\n",
       "    Message('note_on', channel=0, note=60, velocity=100, time=0),\n",
       "    Message('note_on', channel=0, note=60, velocity=0, time=120),\n",
       "    Message('note_on', channel=0, note=57, velocity=100, time=0),\n",
       "    Message('note_on', channel=0, note=57, velocity=0, time=120),\n",
       "    Message('note_on', channel=0, note=53, velocity=100, time=0),\n",
       "    Message('note_on', channel=0, note=53, velocity=0, time=120),\n",
       "    Message('note_on', channel=0, note=55, velocity=100, time=0),\n",
       "    Message('note_on', channel=0, note=55, velocity=0, time=120),\n",
       "    Message('note_on', channel=0, note=57, velocity=100, time=0),\n",
       "    Message('note_on', channel=0, note=57, velocity=0, time=120),\n",
       "    Message('note_on', channel=0, note=59, velocity=100, time=0),\n",
       "    Message('note_on', channel=0, note=59, velocity=0, time=120),\n",
       "    Message('note_on', channel=0, note=60, velocity=100, time=0),\n",
       "    Message('note_on', channel=0, note=60, velocity=0, time=120),\n",
       "    Message('note_on', channel=0, note=62, velocity=100, time=0),\n",
       "    Message('note_on', channel=0, note=62, velocity=0, time=120),\n",
       "    Message('note_on', channel=0, note=64, velocity=100, time=0),\n",
       "    Message('note_on', channel=0, note=64, velocity=0, time=120),\n",
       "    Message('note_on', channel=0, note=62, velocity=100, time=0),\n",
       "    Message('note_on', channel=0, note=62, velocity=0, time=120),\n",
       "    Message('note_on', channel=0, note=64, velocity=100, time=0),\n",
       "    Message('note_on', channel=0, note=64, velocity=0, time=120),\n",
       "    Message('note_on', channel=0, note=60, velocity=100, time=0),\n",
       "    Message('note_on', channel=0, note=60, velocity=0, time=120),\n",
       "    Message('note_on', channel=0, note=59, velocity=100, time=0),\n",
       "    Message('note_on', channel=0, note=59, velocity=0, time=120),\n",
       "    Message('note_on', channel=0, note=57, velocity=100, time=0),\n",
       "    Message('note_on', channel=0, note=57, velocity=0, time=120),\n",
       "    Message('note_on', channel=0, note=59, velocity=100, time=0),\n",
       "    Message('note_on', channel=0, note=59, velocity=0, time=120),\n",
       "    Message('note_on', channel=0, note=55, velocity=100, time=0),\n",
       "    Message('note_on', channel=0, note=55, velocity=0, time=120),\n",
       "    Message('note_on', channel=0, note=53, velocity=100, time=0),\n",
       "    Message('note_on', channel=0, note=53, velocity=0, time=120),\n",
       "    Message('note_on', channel=0, note=52, velocity=100, time=0),\n",
       "    Message('note_on', channel=0, note=52, velocity=0, time=120),\n",
       "    Message('note_on', channel=0, note=53, velocity=100, time=0),\n",
       "    Message('note_on', channel=0, note=53, velocity=0, time=120),\n",
       "    Message('note_on', channel=0, note=50, velocity=100, time=0),\n",
       "    Message('note_on', channel=0, note=50, velocity=0, time=120),\n",
       "    Message('note_on', channel=0, note=47, velocity=100, time=0),\n",
       "    Message('note_on', channel=0, note=47, velocity=0, time=120),\n",
       "    Message('note_on', channel=0, note=45, velocity=100, time=0),\n",
       "    Message('note_on', channel=0, note=45, velocity=0, time=120),\n",
       "    Message('note_on', channel=0, note=47, velocity=100, time=0),\n",
       "    Message('note_on', channel=0, note=47, velocity=0, time=120),\n",
       "    Message('note_on', channel=0, note=43, velocity=100, time=0),\n",
       "    Message('note_on', channel=0, note=43, velocity=0, time=120),\n",
       "    Message('note_on', channel=0, note=41, velocity=100, time=0),\n",
       "    Message('note_on', channel=0, note=41, velocity=0, time=480),\n",
       "    Message('note_on', channel=0, note=40, velocity=100, time=960),\n",
       "    Message('note_on', channel=0, note=40, velocity=0, time=120),\n",
       "    Message('note_on', channel=0, note=60, velocity=100, time=0),\n",
       "    Message('note_on', channel=0, note=60, velocity=0, time=120),\n",
       "    Message('note_on', channel=0, note=59, velocity=100, time=0),\n",
       "    Message('note_on', channel=0, note=59, velocity=0, time=120),\n",
       "    Message('note_on', channel=0, note=57, velocity=100, time=0),\n",
       "    Message('note_on', channel=0, note=57, velocity=0, time=120),\n",
       "    Message('note_on', channel=0, note=55, velocity=100, time=0),\n",
       "    Message('note_on', channel=0, note=55, velocity=0, time=120),\n",
       "    Message('note_on', channel=0, note=53, velocity=100, time=0),\n",
       "    Message('note_on', channel=0, note=53, velocity=0, time=120),\n",
       "    Message('note_on', channel=0, note=52, velocity=100, time=0),\n",
       "    Message('note_on', channel=0, note=52, velocity=0, time=120),\n",
       "    Message('note_on', channel=0, note=50, velocity=100, time=0),\n",
       "    Message('note_on', channel=0, note=50, velocity=0, time=120),\n",
       "    Message('note_on', channel=0, note=48, velocity=100, time=0),\n",
       "    Message('note_on', channel=0, note=48, velocity=0, time=120),\n",
       "    Message('note_on', channel=0, note=43, velocity=100, time=0),\n",
       "    Message('note_on', channel=0, note=43, velocity=0, time=120),\n",
       "    Message('note_on', channel=0, note=40, velocity=100, time=0),\n",
       "    Message('note_on', channel=0, note=40, velocity=0, time=120),\n",
       "    Message('note_on', channel=0, note=43, velocity=100, time=0),\n",
       "    Message('note_on', channel=0, note=43, velocity=0, time=120),\n",
       "    Message('note_on', channel=0, note=39, velocity=100, time=0),\n",
       "    Message('note_on', channel=0, note=39, velocity=0, time=480),\n",
       "    Message('note_on', channel=0, note=38, velocity=100, time=960),\n",
       "    Message('note_on', channel=0, note=38, velocity=0, time=480),\n",
       "    Message('note_on', channel=0, note=36, velocity=100, time=960),\n",
       "    Message('note_on', channel=0, note=36, velocity=0, time=480),\n",
       "    Message('note_on', channel=0, note=36, velocity=100, time=960),\n",
       "    Message('note_on', channel=0, note=36, velocity=0, time=480),\n",
       "    Message('note_on', channel=0, note=36, velocity=100, time=960),\n",
       "    Message('note_on', channel=0, note=36, velocity=0, time=480),\n",
       "    Message('note_on', channel=0, note=36, velocity=100, time=960),\n",
       "    Message('note_on', channel=0, note=36, velocity=0, time=480),\n",
       "    Message('note_on', channel=0, note=36, velocity=100, time=960),\n",
       "    Message('note_on', channel=0, note=36, velocity=0, time=480),\n",
       "    Message('note_on', channel=0, note=60, velocity=100, time=3840),\n",
       "    Message('note_on', channel=0, note=60, velocity=0, time=480),\n",
       "    MetaMessage('end_of_track', time=0)]),\n",
       "  MidiTrack([\n",
       "    MetaMessage('midi_port', port=0, time=0),\n",
       "    MetaMessage('track_name', name='--------------------------------------', time=0),\n",
       "    Message('program_change', channel=1, program=42, time=0),\n",
       "    Message('control_change', channel=1, control=7, value=100, time=0),\n",
       "    Message('control_change', channel=1, control=10, value=74, time=0),\n",
       "    Message('note_on', channel=1, note=59, velocity=100, time=109440),\n",
       "    Message('note_on', channel=1, note=59, velocity=0, time=480),\n",
       "    Message('note_on', channel=1, note=57, velocity=100, time=2400),\n",
       "    Message('note_on', channel=1, note=57, velocity=0, time=480),\n",
       "    Message('note_on', channel=1, note=59, velocity=100, time=960),\n",
       "    Message('note_on', channel=1, note=59, velocity=0, time=480),\n",
       "    Message('note_on', channel=1, note=60, velocity=100, time=960),\n",
       "    Message('note_on', channel=1, note=60, velocity=0, time=480),\n",
       "    Message('note_on', channel=1, note=60, velocity=100, time=0),\n",
       "    Message('note_on', channel=1, note=60, velocity=0, time=480),\n",
       "    Message('note_on', channel=1, note=59, velocity=100, time=0),\n",
       "    Message('note_on', channel=1, note=59, velocity=0, time=480),\n",
       "    Message('note_on', channel=1, note=60, velocity=100, time=0),\n",
       "    Message('note_on', channel=1, note=60, velocity=0, time=600),\n",
       "    Message('note_on', channel=1, note=52, velocity=100, time=0),\n",
       "    Message('note_on', channel=1, note=52, velocity=0, time=120),\n",
       "    Message('note_on', channel=1, note=60, velocity=100, time=0),\n",
       "    Message('note_on', channel=1, note=60, velocity=0, time=120),\n",
       "    Message('note_on', channel=1, note=62, velocity=100, time=0),\n",
       "    Message('note_on', channel=1, note=62, velocity=0, time=120),\n",
       "    Message('note_on', channel=1, note=60, velocity=100, time=0),\n",
       "    Message('note_on', channel=1, note=60, velocity=0, time=120),\n",
       "    Message('note_on', channel=1, note=52, velocity=100, time=0),\n",
       "    Message('note_on', channel=1, note=52, velocity=0, time=120),\n",
       "    Message('note_on', channel=1, note=60, velocity=100, time=0),\n",
       "    Message('note_on', channel=1, note=60, velocity=0, time=120),\n",
       "    Message('note_on', channel=1, note=62, velocity=100, time=0),\n",
       "    Message('note_on', channel=1, note=62, velocity=0, time=120),\n",
       "    Message('note_on', channel=1, note=58, velocity=100, time=0),\n",
       "    Message('note_on', channel=1, note=58, velocity=0, time=600),\n",
       "    Message('note_on', channel=1, note=52, velocity=100, time=0),\n",
       "    Message('note_on', channel=1, note=52, velocity=0, time=120),\n",
       "    Message('note_on', channel=1, note=58, velocity=100, time=0),\n",
       "    Message('note_on', channel=1, note=58, velocity=0, time=120),\n",
       "    Message('note_on', channel=1, note=60, velocity=100, time=0),\n",
       "    Message('note_on', channel=1, note=60, velocity=0, time=120),\n",
       "    Message('note_on', channel=1, note=58, velocity=100, time=0),\n",
       "    Message('note_on', channel=1, note=58, velocity=0, time=120),\n",
       "    Message('note_on', channel=1, note=52, velocity=100, time=0),\n",
       "    Message('note_on', channel=1, note=52, velocity=0, time=120),\n",
       "    Message('note_on', channel=1, note=58, velocity=100, time=0),\n",
       "    Message('note_on', channel=1, note=58, velocity=0, time=120),\n",
       "    Message('note_on', channel=1, note=60, velocity=100, time=0),\n",
       "    Message('note_on', channel=1, note=60, velocity=0, time=120),\n",
       "    Message('note_on', channel=1, note=57, velocity=100, time=0),\n",
       "    Message('note_on', channel=1, note=57, velocity=0, time=600),\n",
       "    Message('note_on', channel=1, note=53, velocity=100, time=0),\n",
       "    Message('note_on', channel=1, note=53, velocity=0, time=120),\n",
       "    Message('note_on', channel=1, note=52, velocity=100, time=0),\n",
       "    Message('note_on', channel=1, note=52, velocity=0, time=120),\n",
       "    Message('note_on', channel=1, note=53, velocity=100, time=0),\n",
       "    Message('note_on', channel=1, note=53, velocity=0, time=120),\n",
       "    Message('note_on', channel=1, note=57, velocity=100, time=0),\n",
       "    Message('note_on', channel=1, note=57, velocity=0, time=120),\n",
       "    Message('note_on', channel=1, note=53, velocity=100, time=0),\n",
       "    Message('note_on', channel=1, note=53, velocity=0, time=120),\n",
       "    Message('note_on', channel=1, note=52, velocity=100, time=0),\n",
       "    Message('note_on', channel=1, note=52, velocity=0, time=120),\n",
       "    Message('note_on', channel=1, note=53, velocity=100, time=0),\n",
       "    Message('note_on', channel=1, note=53, velocity=0, time=120),\n",
       "    Message('note_on', channel=1, note=59, velocity=100, time=0),\n",
       "    Message('note_on', channel=1, note=59, velocity=0, time=600),\n",
       "    Message('note_on', channel=1, note=60, velocity=100, time=0),\n",
       "    Message('note_on', channel=1, note=60, velocity=0, time=120),\n",
       "    Message('note_on', channel=1, note=59, velocity=100, time=0),\n",
       "    Message('note_on', channel=1, note=59, velocity=0, time=120),\n",
       "    Message('note_on', channel=1, note=60, velocity=100, time=0),\n",
       "    Message('note_on', channel=1, note=60, velocity=0, time=120),\n",
       "    Message('note_on', channel=1, note=59, velocity=100, time=0),\n",
       "    Message('note_on', channel=1, note=59, velocity=0, time=120),\n",
       "    Message('note_on', channel=1, note=60, velocity=100, time=0),\n",
       "    Message('note_on', channel=1, note=60, velocity=0, time=120),\n",
       "    Message('note_on', channel=1, note=59, velocity=100, time=0),\n",
       "    Message('note_on', channel=1, note=59, velocity=0, time=120),\n",
       "    Message('note_on', channel=1, note=60, velocity=100, time=0),\n",
       "    Message('note_on', channel=1, note=60, velocity=0, time=120),\n",
       "    Message('pitchwheel', channel=1, pitch=4096, time=0),\n",
       "    Message('note_on', channel=1, note=59, velocity=100, time=0),\n",
       "    Message('pitchwheel', channel=1, pitch=0, time=40),\n",
       "    Message('pitchwheel', channel=1, pitch=4096, time=40),\n",
       "    Message('pitchwheel', channel=1, pitch=0, time=40),\n",
       "    Message('pitchwheel', channel=1, pitch=4096, time=40),\n",
       "    Message('pitchwheel', channel=1, pitch=0, time=40),\n",
       "    Message('pitchwheel', channel=1, pitch=4096, time=40),\n",
       "    Message('pitchwheel', channel=1, pitch=0, time=40),\n",
       "    Message('pitchwheel', channel=1, pitch=4096, time=40),\n",
       "    Message('pitchwheel', channel=1, pitch=0, time=40),\n",
       "    Message('pitchwheel', channel=1, pitch=4096, time=40),\n",
       "    Message('pitchwheel', channel=1, pitch=0, time=40),\n",
       "    Message('pitchwheel', channel=1, pitch=4096, time=40),\n",
       "    Message('pitchwheel', channel=1, pitch=0, time=40),\n",
       "    Message('pitchwheel', channel=1, pitch=4096, time=40),\n",
       "    Message('pitchwheel', channel=1, pitch=0, time=40),\n",
       "    Message('pitchwheel', channel=1, pitch=4096, time=40),\n",
       "    Message('pitchwheel', channel=1, pitch=0, time=40),\n",
       "    Message('pitchwheel', channel=1, pitch=4096, time=40),\n",
       "    Message('pitchwheel', channel=1, pitch=0, time=40),\n",
       "    Message('pitchwheel', channel=1, pitch=4096, time=40),\n",
       "    Message('pitchwheel', channel=1, pitch=0, time=40),\n",
       "    Message('pitchwheel', channel=1, pitch=4096, time=40),\n",
       "    Message('pitchwheel', channel=1, pitch=0, time=40),\n",
       "    Message('note_on', channel=1, note=59, velocity=0, time=520),\n",
       "    Message('note_on', channel=1, note=60, velocity=100, time=0),\n",
       "    Message('note_on', channel=1, note=60, velocity=0, time=240),\n",
       "    Message('note_on', channel=1, note=59, velocity=100, time=0),\n",
       "    Message('note_on', channel=1, note=59, velocity=0, time=120),\n",
       "    Message('note_on', channel=1, note=57, velocity=100, time=0),\n",
       "    Message('note_on', channel=1, note=57, velocity=0, time=120),\n",
       "    Message('note_on', channel=1, note=55, velocity=100, time=0),\n",
       "    Message('note_on', channel=1, note=55, velocity=0, time=120),\n",
       "    Message('note_on', channel=1, note=53, velocity=100, time=0),\n",
       "    Message('note_on', channel=1, note=53, velocity=0, time=120),\n",
       "    Message('note_on', channel=1, note=52, velocity=100, time=0),\n",
       "    Message('note_on', channel=1, note=52, velocity=0, time=120),\n",
       "    Message('note_on', channel=1, note=50, velocity=100, time=0),\n",
       "    Message('note_on', channel=1, note=50, velocity=0, time=120),\n",
       "    Message('note_on', channel=1, note=48, velocity=100, time=0),\n",
       "    Message('note_on', channel=1, note=48, velocity=0, time=120),\n",
       "    Message('note_on', channel=1, note=43, velocity=100, time=0),\n",
       "    Message('note_on', channel=1, note=43, velocity=0, time=120),\n",
       "    Message('note_on', channel=1, note=40, velocity=100, time=0),\n",
       "    Message('note_on', channel=1, note=40, velocity=0, time=120),\n",
       "    Message('note_on', channel=1, note=43, velocity=100, time=0),\n",
       "    Message('note_on', channel=1, note=43, velocity=0, time=120),\n",
       "    Message('note_on', channel=1, note=36, velocity=100, time=0),\n",
       "    Message('note_on', channel=1, note=36, velocity=0, time=480),\n",
       "    MetaMessage('end_of_track', time=0)]),\n",
       "  MidiTrack([\n",
       "    MetaMessage('midi_port', port=0, time=0),\n",
       "    MetaMessage('track_name', name='Johann Sebastian Bach  (1685-1750)', time=0),\n",
       "    Message('program_change', channel=2, program=42, time=0),\n",
       "    Message('control_change', channel=2, control=7, value=100, time=0),\n",
       "    Message('control_change', channel=2, control=10, value=54, time=0),\n",
       "    Message('note_on', channel=2, note=50, velocity=100, time=109440),\n",
       "    Message('note_on', channel=2, note=50, velocity=0, time=480),\n",
       "    Message('note_on', channel=2, note=55, velocity=100, time=2400),\n",
       "    Message('note_on', channel=2, note=55, velocity=0, time=480),\n",
       "    Message('note_on', channel=2, note=53, velocity=100, time=960),\n",
       "    Message('note_on', channel=2, note=53, velocity=0, time=480),\n",
       "    Message('note_on', channel=2, note=52, velocity=100, time=960),\n",
       "    Message('note_on', channel=2, note=52, velocity=0, time=480),\n",
       "    Message('note_on', channel=2, note=50, velocity=100, time=0),\n",
       "    Message('note_on', channel=2, note=50, velocity=0, time=960),\n",
       "    Message('note_on', channel=2, note=52, velocity=100, time=0),\n",
       "    Message('note_on', channel=2, note=52, velocity=0, time=480),\n",
       "    Message('note_on', channel=2, note=52, velocity=100, time=960),\n",
       "    Message('note_on', channel=2, note=52, velocity=0, time=480),\n",
       "    Message('note_on', channel=2, note=53, velocity=100, time=960),\n",
       "    Message('note_on', channel=2, note=53, velocity=0, time=480),\n",
       "    Message('note_on', channel=2, note=50, velocity=100, time=960),\n",
       "    Message('note_on', channel=2, note=50, velocity=0, time=600),\n",
       "    Message('note_on', channel=2, note=52, velocity=100, time=0),\n",
       "    Message('note_on', channel=2, note=52, velocity=0, time=120),\n",
       "    Message('note_on', channel=2, note=50, velocity=100, time=0),\n",
       "    Message('note_on', channel=2, note=50, velocity=0, time=120),\n",
       "    Message('note_on', channel=2, note=52, velocity=100, time=0),\n",
       "    Message('note_on', channel=2, note=52, velocity=0, time=120),\n",
       "    Message('note_on', channel=2, note=50, velocity=100, time=0),\n",
       "    Message('note_on', channel=2, note=50, velocity=0, time=120),\n",
       "    Message('note_on', channel=2, note=52, velocity=100, time=0),\n",
       "    Message('note_on', channel=2, note=52, velocity=0, time=120),\n",
       "    Message('note_on', channel=2, note=50, velocity=100, time=0),\n",
       "    Message('note_on', channel=2, note=50, velocity=0, time=120),\n",
       "    Message('note_on', channel=2, note=52, velocity=100, time=0),\n",
       "    Message('note_on', channel=2, note=52, velocity=0, time=120),\n",
       "    Message('note_on', channel=2, note=50, velocity=100, time=0),\n",
       "    Message('pitchwheel', channel=2, pitch=8191, time=0),\n",
       "    Message('pitchwheel', channel=2, pitch=0, time=40),\n",
       "    Message('pitchwheel', channel=2, pitch=8191, time=40),\n",
       "    Message('pitchwheel', channel=2, pitch=0, time=40),\n",
       "    Message('pitchwheel', channel=2, pitch=8191, time=40),\n",
       "    Message('pitchwheel', channel=2, pitch=0, time=40),\n",
       "    Message('pitchwheel', channel=2, pitch=8191, time=40),\n",
       "    Message('pitchwheel', channel=2, pitch=0, time=40),\n",
       "    Message('pitchwheel', channel=2, pitch=8191, time=40),\n",
       "    Message('pitchwheel', channel=2, pitch=0, time=40),\n",
       "    Message('pitchwheel', channel=2, pitch=8191, time=40),\n",
       "    Message('pitchwheel', channel=2, pitch=0, time=40),\n",
       "    Message('pitchwheel', channel=2, pitch=8191, time=40),\n",
       "    Message('pitchwheel', channel=2, pitch=0, time=40),\n",
       "    Message('pitchwheel', channel=2, pitch=8191, time=40),\n",
       "    Message('pitchwheel', channel=2, pitch=0, time=40),\n",
       "    Message('pitchwheel', channel=2, pitch=8191, time=40),\n",
       "    Message('pitchwheel', channel=2, pitch=0, time=40),\n",
       "    Message('pitchwheel', channel=2, pitch=8191, time=40),\n",
       "    Message('pitchwheel', channel=2, pitch=0, time=40),\n",
       "    Message('pitchwheel', channel=2, pitch=8191, time=40),\n",
       "    Message('pitchwheel', channel=2, pitch=0, time=40),\n",
       "    Message('pitchwheel', channel=2, pitch=8191, time=40),\n",
       "    Message('pitchwheel', channel=2, pitch=0, time=40),\n",
       "    Message('note_on', channel=2, note=50, velocity=0, time=520),\n",
       "    Message('note_on', channel=2, note=52, velocity=100, time=1440),\n",
       "    Message('note_on', channel=2, note=52, velocity=0, time=480),\n",
       "    MetaMessage('end_of_track', time=0)]),\n",
       "  MidiTrack([\n",
       "    MetaMessage('midi_port', port=0, time=0),\n",
       "    MetaMessage('track_name', name='Six Suites for Solo Cello', time=0),\n",
       "    Message('program_change', channel=3, program=42, time=0),\n",
       "    Message('control_change', channel=3, control=7, value=100, time=0),\n",
       "    Message('control_change', channel=3, control=10, value=44, time=0),\n",
       "    Message('note_on', channel=3, note=43, velocity=100, time=109440),\n",
       "    Message('note_on', channel=3, note=43, velocity=0, time=480),\n",
       "    Message('note_on', channel=3, note=43, velocity=100, time=2400),\n",
       "    Message('note_on', channel=3, note=43, velocity=0, time=480),\n",
       "    Message('note_on', channel=3, note=43, velocity=100, time=960),\n",
       "    Message('note_on', channel=3, note=43, velocity=0, time=480),\n",
       "    Message('note_on', channel=3, note=43, velocity=100, time=960),\n",
       "    Message('note_on', channel=3, note=43, velocity=0, time=480),\n",
       "    Message('note_on', channel=3, note=43, velocity=100, time=0),\n",
       "    Message('note_on', channel=3, note=43, velocity=0, time=960),\n",
       "    Message('note_on', channel=3, note=43, velocity=100, time=0),\n",
       "    Message('note_on', channel=3, note=43, velocity=0, time=480),\n",
       "    Message('note_on', channel=3, note=43, velocity=100, time=960),\n",
       "    Message('note_on', channel=3, note=43, velocity=0, time=480),\n",
       "    Message('note_on', channel=3, note=45, velocity=100, time=960),\n",
       "    Message('note_on', channel=3, note=45, velocity=0, time=480),\n",
       "    Message('note_on', channel=3, note=44, velocity=100, time=960),\n",
       "    Message('note_on', channel=3, note=44, velocity=0, time=480),\n",
       "    Message('note_on', channel=3, note=43, velocity=100, time=3840),\n",
       "    Message('note_on', channel=3, note=43, velocity=0, time=480),\n",
       "    MetaMessage('end_of_track', time=0)]),\n",
       "  MidiTrack([\n",
       "    MetaMessage('midi_port', port=0, time=0),\n",
       "    MetaMessage('track_name', name='--------------------------------------', time=0),\n",
       "    MetaMessage('end_of_track', time=0)]),\n",
       "  MidiTrack([\n",
       "    MetaMessage('midi_port', port=0, time=0),\n",
       "    MetaMessage('track_name', name='Suite No. 3 in C major - BWV 1009', time=0),\n",
       "    MetaMessage('end_of_track', time=0)]),\n",
       "  MidiTrack([\n",
       "    MetaMessage('midi_port', port=0, time=0),\n",
       "    MetaMessage('track_name', name='1st Movement: Prelude', time=0),\n",
       "    MetaMessage('end_of_track', time=0)]),\n",
       "  MidiTrack([\n",
       "    MetaMessage('midi_port', port=0, time=0),\n",
       "    MetaMessage('track_name', name='--------------------------------------', time=0),\n",
       "    MetaMessage('end_of_track', time=0)]),\n",
       "  MidiTrack([\n",
       "    MetaMessage('midi_port', port=0, time=0),\n",
       "    MetaMessage('track_name', name='Sequenced with Cakewalk Pro Audio by', time=0),\n",
       "    MetaMessage('end_of_track', time=0)]),\n",
       "  MidiTrack([\n",
       "    MetaMessage('midi_port', port=0, time=0),\n",
       "    MetaMessage('track_name', name='David J. Grossman - dave@unpronounceable.com', time=0),\n",
       "    MetaMessage('end_of_track', time=0)]),\n",
       "  MidiTrack([\n",
       "    MetaMessage('midi_port', port=0, time=0),\n",
       "    MetaMessage('track_name', name='This and other Bach MIDI files can be found at:', time=0),\n",
       "    MetaMessage('end_of_track', time=0)]),\n",
       "  MidiTrack([\n",
       "    MetaMessage('midi_port', port=0, time=0),\n",
       "    MetaMessage('track_name', name=\"Dave's J.S. Bach Page\", time=0),\n",
       "    MetaMessage('end_of_track', time=0)]),\n",
       "  MidiTrack([\n",
       "    MetaMessage('midi_port', port=0, time=0),\n",
       "    MetaMessage('track_name', name='http://www.unpronounceable.com/bach', time=0),\n",
       "    MetaMessage('end_of_track', time=0)]),\n",
       "  MidiTrack([\n",
       "    MetaMessage('midi_port', port=0, time=0),\n",
       "    MetaMessage('track_name', name='--------------------------------------', time=0),\n",
       "    MetaMessage('end_of_track', time=0)]),\n",
       "  MidiTrack([\n",
       "    MetaMessage('midi_port', port=0, time=0),\n",
       "    MetaMessage('track_name', name='Original Filename: cs3-1pre.mid', time=0),\n",
       "    MetaMessage('end_of_track', time=0)]),\n",
       "  MidiTrack([\n",
       "    MetaMessage('midi_port', port=0, time=0),\n",
       "    MetaMessage('track_name', name='Last Modified: February 22, 1997', time=0),\n",
       "    MetaMessage('end_of_track', time=0)]),\n",
       "  MidiTrack([\n",
       "    MetaMessage('midi_port', port=0, time=0),\n",
       "    MetaMessage('end_of_track', time=0)])\n",
       "])"
      ]
     },
     "execution_count": 6,
     "metadata": {},
     "output_type": "execute_result"
    }
   ],
   "source": [
    "midi_file"
   ]
  },
  {
   "cell_type": "code",
   "execution_count": null,
   "metadata": {},
   "outputs": [],
   "source": []
  }
 ],
 "metadata": {
  "kernelspec": {
   "display_name": ".venv",
   "language": "python",
   "name": "python3"
  },
  "language_info": {
   "codemirror_mode": {
    "name": "ipython",
    "version": 3
   },
   "file_extension": ".py",
   "mimetype": "text/x-python",
   "name": "python",
   "nbconvert_exporter": "python",
   "pygments_lexer": "ipython3",
   "version": "3.12.3"
  }
 },
 "nbformat": 4,
 "nbformat_minor": 2
}
